<?xml version="1.0" standalone="no"?>
<svg version="1.0" xmlns="http://www.w3.org/2000/svg"
 width="512.000000pt" height="503.000000pt" viewBox="0 0 512.000000 503.000000"
 preserveAspectRatio="xMidYMid meet">
<g transform="translate(0.000000,503.000000) scale(0.100000,-0.100000)"
fill="#000000" stroke="none">
<path d="M2065 4933 c-47 -24 -286 -162 -293 -168 -10 -10 248 -386 262 -382
8 3 18 20 85 142 15 28 58 117 96 198 58 127 66 150 54 162 -20 20 -125 75
-141 75 -7 -1 -35 -13 -63 -27z m86 -64 c29 -20 38 -55 20 -74 -5 -6 -13 -23
-18 -40 -14 -52 -103 -216 -120 -222 -20 -8 -91 71 -130 145 l-28 52 34 28
c33 26 200 132 209 132 2 0 17 -9 33 -21z"/>
<path d="M2336 4829 c-9 -13 -16 -28 -16 -34 0 -5 -11 -32 -24 -60 -90 -190
-120 -256 -138 -300 -11 -27 -23 -54 -28 -60 -4 -5 -13 -26 -19 -46 -11 -35
-10 -40 40 -120 29 -46 111 -169 184 -274 72 -104 187 -272 254 -372 67 -101
126 -183 130 -183 13 0 55 70 165 276 38 71 72 131 76 134 9 7 270 520 270
531 0 3 -19 16 -42 29 -24 13 -45 26 -48 29 -5 6 -13 11 -99 59 -25 13 -67 38
-93 53 -27 16 -51 29 -54 29 -2 0 -21 11 -42 24 -20 13 -93 56 -162 96 -202
118 -325 193 -331 203 -4 5 -14 -1 -23 -14z m139 -140 c44 -23 82 -44 85 -48
3 -3 23 -15 45 -26 22 -10 47 -24 55 -31 8 -6 35 -23 60 -36 81 -45 125 -72
156 -95 17 -13 34 -23 38 -23 15 0 192 -108 210 -129 20 -22 19 -22 -38 -134
-198 -388 -345 -647 -366 -647 -15 0 -107 116 -180 225 -37 55 -122 181 -189
280 -68 99 -134 201 -149 227 -31 54 -31 51 45 223 76 170 123 255 142 255 3
0 42 -19 86 -41z"/>
<path d="M1591 4655 c-51 -30 -94 -55 -96 -55 -3 0 -159 -89 -280 -160 -49
-29 -106 -62 -126 -74 -20 -11 -109 -64 -198 -116 -175 -103 -205 -121 -332
-193 -46 -26 -97 -57 -114 -67 -16 -10 -41 -25 -55 -33 -31 -16 -278 -156
-305 -172 -19 -12 -20 -19 -13 -129 l6 -116 74 -89 c40 -48 98 -119 128 -156
30 -37 62 -75 70 -85 8 -10 47 -57 85 -105 39 -48 98 -122 133 -164 35 -42 80
-96 100 -120 20 -25 62 -74 92 -110 31 -37 65 -79 77 -94 12 -15 70 -84 129
-152 90 -103 111 -122 123 -112 8 7 45 77 83 157 38 80 89 186 113 235 24 50
62 128 83 175 95 205 186 401 222 475 21 44 71 150 110 235 40 85 89 191 110
235 21 44 64 134 95 200 80 169 98 205 102 205 2 0 12 -6 23 -12 16 -10 23
-10 36 3 14 15 14 19 0 48 -20 38 -33 40 -42 6 -6 -23 -8 -24 -23 -11 -9 8
-64 83 -121 166 -140 202 -169 240 -183 240 -7 0 -54 -25 -106 -55z m132 -74
c70 -78 197 -280 197 -315 0 -13 -45 -113 -124 -277 -20 -41 -36 -77 -36 -80
0 -4 -30 -69 -66 -145 -37 -77 -80 -168 -96 -204 -16 -36 -45 -96 -64 -135
-19 -38 -34 -76 -34 -82 0 -7 -4 -13 -10 -13 -5 0 -10 -5 -10 -12 0 -12 -77
-178 -195 -423 -29 -60 -69 -144 -89 -185 -35 -75 -89 -176 -116 -217 -26 -41
-24 -43 -170 138 -47 58 -123 152 -170 208 -47 57 -152 186 -235 286 -82 101
-187 227 -231 282 -106 128 -124 163 -124 235 0 31 4 68 9 82 8 21 117 106
136 106 4 0 44 23 91 50 47 28 87 50 90 50 3 0 29 15 59 34 29 19 87 54 127
77 40 23 89 50 108 61 19 11 168 98 330 193 162 95 316 184 342 199 25 14 84
48 130 76 45 27 90 50 99 50 9 0 33 -18 52 -39z"/>
<path d="M3298 4243 c-22 -25 -72 -102 -92 -143 -4 -8 -20 -37 -36 -65 -17
-27 -45 -79 -63 -115 -37 -72 -59 -112 -67 -120 -3 -3 -21 -36 -40 -75 -19
-38 -37 -72 -40 -75 -3 -3 -15 -23 -26 -45 -11 -22 -50 -97 -87 -166 -37 -69
-67 -135 -66 -145 0 -10 20 -46 43 -79 40 -55 47 -60 86 -63 l42 -3 -25 33
c-31 40 -57 102 -57 134 0 28 184 394 203 402 4 2 7 7 7 11 0 8 140 271 159
301 6 8 24 38 40 66 17 28 39 58 50 68 19 18 22 17 63 -6 109 -62 125 -71 148
-88 14 -9 50 -30 80 -47 80 -43 104 -57 110 -64 3 -3 39 -25 80 -48 118 -68
132 -76 188 -110 29 -17 56 -31 59 -31 18 0 42 -48 48 -98 4 -31 7 -162 6
-289 l-1 -233 40 0 40 0 0 310 0 310 -32 15 c-37 18 -64 33 -158 89 -36 22
-74 44 -85 50 -22 12 -88 53 -120 74 -11 6 -31 17 -45 24 -14 7 -32 17 -40 24
-8 6 -35 23 -60 36 -25 14 -59 34 -76 44 -105 64 -244 144 -249 144 -1 0 -13
-12 -27 -27z"/>
<path d="M2040 4168 c-11 -18 -26 -45 -33 -60 -6 -16 -15 -28 -19 -28 -5 0 -8
-4 -8 -10 0 -9 -43 -105 -115 -255 -87 -182 -115 -243 -115 -254 0 -6 -5 -11
-12 -11 -6 0 -9 -3 -6 -6 3 -3 -15 -49 -42 -102 -26 -53 -60 -124 -75 -157
-15 -33 -54 -114 -85 -180 -32 -66 -69 -145 -82 -175 -14 -30 -49 -104 -77
-164 -28 -60 -51 -115 -51 -122 0 -8 -4 -14 -10 -14 -5 0 -10 -5 -10 -11 0 -6
-28 -68 -61 -137 -34 -70 -61 -128 -60 -130 0 -1 -8 -19 -19 -39 -11 -21 -20
-43 -20 -49 0 -13 54 -82 269 -344 157 -192 297 -357 310 -364 8 -5 23 17 91
136 47 83 124 221 156 278 19 36 46 84 59 106 27 46 24 54 -16 54 -28 0 -28 1
-98 -135 -14 -27 -29 -52 -32 -55 -4 -3 -17 -26 -30 -52 -34 -68 -105 -183
-122 -196 -12 -10 -33 7 -113 91 -55 56 -117 125 -138 152 -22 28 -65 82 -96
120 -93 115 -150 204 -150 234 0 15 6 41 14 57 25 52 132 276 195 407 34 71
61 131 61 134 0 3 15 37 34 77 19 39 50 105 69 146 48 105 218 465 276 585 27
55 75 155 107 223 32 68 64 128 71 134 24 19 21 23 283 -362 80 -118 172 -251
203 -294 31 -43 57 -87 57 -97 0 -23 -37 -110 -57 -131 -15 -17 -13 -18 28
-18 44 0 44 0 78 65 36 67 52 78 70 48 9 -16 12 -16 21 -3 24 36 0 106 -28 78
-6 -6 -17 -8 -26 -5 -18 7 -147 179 -268 357 -106 157 -211 310 -257 375 -19
28 -48 69 -64 93 -15 23 -30 42 -33 42 -2 0 -13 -15 -24 -32z"/>
<path d="M68 2406 l2 -1035 83 -47 c45 -25 107 -60 137 -77 30 -17 72 -41 92
-54 21 -13 42 -23 47 -23 5 0 14 -7 21 -15 16 -20 20 -5 -179 -596 -89 -262
-161 -487 -161 -499 0 -21 4 -22 42 -18 26 3 116 40 222 92 98 47 180 86 181
86 1 0 91 43 200 95 108 52 198 95 200 95 1 0 91 43 200 95 108 52 207 95 219
95 12 0 84 -37 161 -82 77 -44 156 -89 175 -100 19 -10 49 -27 65 -37 150 -91
325 -183 345 -183 23 0 184 78 267 128 17 10 56 33 86 51 31 18 58 37 62 43 6
10 -78 122 -209 276 -34 40 -92 111 -131 159 -38 47 -75 92 -80 98 -6 7 -60
73 -120 147 -173 215 -238 290 -253 290 -8 0 -18 -15 -57 -86 -15 -27 -44 -78
-65 -114 -21 -36 -57 -103 -81 -150 -24 -47 -46 -87 -50 -90 -3 -3 -17 -27
-31 -55 -32 -66 -77 -146 -93 -165 -7 -8 -16 -25 -19 -37 -7 -22 -88 -66 -356
-191 -47 -22 -141 -67 -210 -100 -69 -32 -170 -81 -225 -106 -55 -26 -153 -73
-218 -103 -64 -31 -120 -53 -125 -49 -10 10 321 990 368 1091 21 44 61 132 90
195 29 63 71 156 95 205 24 50 61 128 82 175 22 47 59 126 83 175 24 50 58
124 76 165 18 41 38 76 43 78 6 2 20 -2 32 -8 29 -16 43 0 34 40 -7 32 -36 53
-43 32 -8 -24 -31 -10 -93 56 -59 63 -282 328 -459 547 -41 51 -111 137 -155
192 -45 54 -127 155 -184 226 -56 70 -106 127 -109 127 -4 0 -6 -466 -4 -1034z
m207 682 c244 -295 315 -381 385 -465 41 -49 111 -134 155 -189 44 -54 95
-114 113 -133 45 -49 43 -62 -28 -216 -10 -22 -40 -87 -65 -145 -26 -58 -65
-141 -85 -185 -21 -44 -56 -118 -77 -164 -75 -165 -168 -345 -183 -354 -20
-12 -89 22 -261 126 -34 20 -65 37 -70 37 -4 0 -9 87 -11 193 -8 332 -3 1591
5 1605 5 6 11 12 15 11 4 0 52 -55 107 -121z m1532 -1866 c35 -40 309 -371
432 -520 42 -51 96 -117 121 -147 75 -88 86 -126 43 -142 -9 -4 -44 -23 -78
-43 -33 -20 -90 -53 -127 -72 l-67 -36 -73 37 c-132 68 -233 124 -249 137 -8
8 -19 14 -24 14 -5 0 -25 10 -44 23 -20 13 -61 39 -91 58 -139 89 -198 129
-210 144 -11 13 -5 33 44 128 67 131 122 233 141 264 14 20 42 69 69 118 28
50 50 75 65 75 9 0 30 -17 48 -38z"/>
<path d="M2706 3175 l-16 -25 46 0 c46 0 46 0 32 23 -21 31 -42 32 -62 2z"/>
<path d="M1070 2128 c-22 -52 -59 -134 -105 -233 -13 -27 -44 -93 -68 -145
-81 -173 -138 -293 -217 -455 -89 -184 -95 -201 -226 -585 -129 -381 -137
-408 -130 -426 5 -12 14 -15 35 -11 28 6 216 93 576 267 105 50 224 108 266
128 67 32 80 43 100 82 13 25 29 52 35 60 6 8 33 58 60 110 26 52 50 97 54
100 3 3 22 39 42 80 21 41 48 93 61 115 40 67 90 158 109 198 19 38 35 46 55
26 18 -18 43 -2 43 26 0 31 -25 43 -53 25 -18 -11 -23 -10 -41 12 -61 73 -185
225 -216 262 -192 237 -337 408 -351 414 -3 1 -16 -21 -29 -50z m108 -145 c55
-59 312 -367 371 -445 59 -79 57 -102 -18 -233 -16 -27 -42 -75 -57 -105 -15
-30 -35 -66 -44 -80 -9 -14 -45 -79 -80 -145 -107 -205 -116 -216 -228 -271
-279 -137 -677 -324 -689 -324 -7 0 -13 3 -13 8 0 4 24 79 54 167 30 88 82
240 115 337 33 97 65 185 70 195 15 26 90 190 109 238 8 22 18 42 22 45 3 3
19 37 34 75 16 39 46 104 67 145 20 41 47 98 59 125 12 28 42 90 66 139 24 48
44 94 44 101 0 17 48 75 63 75 6 0 31 -21 55 -47z"/>
<path d="M2097 2068 c-19 -35 -65 -121 -103 -191 -38 -70 -81 -149 -95 -175
-14 -26 -34 -63 -44 -82 -11 -19 -20 -37 -20 -40 -1 -3 -12 -27 -25 -53 -30
-58 -40 -38 139 -261 75 -93 147 -183 161 -201 14 -18 84 -103 155 -190 72
-87 141 -172 155 -189 59 -76 185 -216 194 -216 10 0 134 68 291 160 44 25
145 84 225 130 80 45 155 89 167 97 13 7 30 28 38 46 9 17 38 73 64 122 27 50
66 124 88 165 21 41 40 77 43 80 7 7 53 93 170 315 36 70 53 128 45 155 -4 12
-62 104 -130 204 -118 175 -124 181 -159 184 -20 2 -36 0 -36 -3 0 -8 6 -17
163 -246 59 -87 107 -161 107 -166 0 -13 -167 -334 -214 -413 -12 -19 -33 -57
-46 -83 -78 -150 -143 -251 -191 -297 -42 -40 -461 -293 -572 -346 l-37 -18
-51 50 c-46 45 -131 146 -309 368 -36 45 -121 149 -190 231 -187 222 -213 260
-205 287 9 28 120 255 133 271 6 7 34 59 64 117 30 58 71 135 91 171 20 36 34
69 30 73 -3 3 -19 6 -34 6 -23 0 -32 -9 -62 -62z"/>
<path d="M3587 2124 c-10 -10 210 -313 228 -314 6 0 23 24 39 53 15 28 54 98
86 154 32 56 55 104 52 107 -8 8 -55 7 -67 -2 -5 -4 -19 -25 -30 -47 -27 -54
-87 -135 -100 -135 -10 1 -51 53 -113 142 -26 38 -38 48 -61 48 -15 0 -30 -3
-34 -6z"/>
<path d="M4073 2118 c-6 -7 -17 -26 -25 -43 -16 -32 -124 -230 -164 -303 -13
-23 -24 -47 -24 -53 0 -12 148 -235 199 -299 36 -47 71 -79 83 -80 4 0 15 15
25 33 16 29 18 67 19 387 0 244 -3 357 -10 362 -18 12 -93 9 -103 -4z m34
-155 c8 -35 10 -439 2 -447 -13 -13 -37 7 -81 67 -88 120 -91 141 -41 242 34
66 96 165 105 165 4 0 11 -12 15 -27z"/>
<path d="M3796 1745 c-9 -24 -7 -48 4 -65 16 -24 40 13 31 47 -8 32 -26 40
-35 18z"/>
<path d="M3772 1567 c-23 -42 -60 -110 -81 -149 -52 -97 -78 -144 -141 -258
-28 -52 -65 -119 -81 -149 -17 -29 -28 -58 -27 -62 2 -5 28 7 58 26 30 19 62
38 70 41 8 4 26 15 40 24 14 10 45 28 70 42 68 38 258 146 318 181 29 17 52
38 52 48 0 9 -12 29 -26 45 -14 16 -54 72 -89 124 -35 52 -77 110 -93 129
l-29 35 -41 -77z m144 -180 c14 -26 23 -54 21 -62 -7 -16 -80 -67 -167 -115
-36 -20 -75 -43 -87 -50 -16 -10 -26 -11 -33 -4 -15 15 64 189 131 286 11 15
19 31 19 36 0 4 6 14 13 21 10 10 18 5 44 -26 18 -21 44 -60 59 -86z"/>
</g>
<g fill="#000000">
<path d="M180 0H725C1076 0 1224 172 1224 397C1224 631 1061 759 922 768V782C1052 817 1166 904 1166 1095C1166 1313 1019 1490 708 1490H180ZM370 168V676H730C921 676 1041 548 1041 399C1041 270 952 168 720 168ZM370 836V1322H704C897 1322 984 1220 984 1091C984 937 858 836 698 836Z" transform="translate(226.94,272.00) scale(0.046875,-0.046875)"/>
<path d="M180 0H1060V168H370V1490H180Z" transform="translate(289.75,272.00) scale(0.046875,-0.046875)"/>
<path d="M784 -20C1166 -20 1444 272 1444 744C1444 1217 1166 1510 784 1510C402 1510 122 1217 122 744C122 272 402 -20 784 -20ZM784 156C516 156 307 364 307 744C307 1126 516 1334 784 1334C1050 1334 1259 1127 1259 744C1259 363 1050 156 784 156Z" transform="translate(344.03,272.00) scale(0.046875,-0.046875)"/>
<path d="M789 -20C1144 -20 1400 216 1400 586V749H828V583H1214C1209 321 1038 156 789 156C515 156 307 364 307 744C307 1127 516 1334 778 1334C989 1334 1132 1214 1193 1023H1389C1335 1312 1092 1510 777 1510C395 1510 122 1217 122 744C122 273 391 -20 789 -20Z" transform="translate(417.44,272.00) scale(0.046875,-0.046875)"/>
</g>
</svg>