<?xml version="1.0" standalone="no"?>
<svg version="1.0" xmlns="http://www.w3.org/2000/svg"
 width="1024.000000pt" height="976.000000pt" viewBox="0 0 1024.000000 976.000000"
 preserveAspectRatio="xMidYMid meet">
<g transform="translate(0.000000,976.000000) scale(0.100000,-0.100000)"
fill="#000000" stroke="none">
<path d="M5050 9452 c-19 -10 -169 -94 -332 -187 -190 -108 -298 -175 -298
-185 0 -8 31 -60 68 -115 37 -55 150 -223 251 -374 l183 -274 40 63 c22 35
109 205 193 379 240 498 259 542 248 560 -5 8 -63 46 -127 83 -129 74 -164 82
-226 50z m123 -150 c36 -38 47 -80 36 -134 -9 -39 -231 -500 -262 -542 -30
-41 -64 -7 -231 234 -49 70 -86 134 -86 147 0 31 29 57 143 129 50 32 139 89
195 126 122 80 160 87 205 40z"/>
<path d="M5528 9203 c-11 -26 -118 -262 -236 -523 -143 -316 -215 -487 -216
-510 0 -26 16 -62 62 -138 l62 -103 -44 6 c-27 4 -59 2 -82 -5 -36 -12 -39
-12 -60 16 -13 15 -25 26 -26 24 -2 -3 -16 -24 -31 -47 -15 -23 -39 -49 -54
-56 -41 -21 -164 -60 -169 -54 -3 3 27 73 67 155 l71 151 49 -27 c59 -33 82
-24 87 33 2 27 -4 48 -22 76 -37 56 -66 49 -66 -16 0 -40 -23 -48 -52 -17 -41
46 -259 348 -496 692 -62 89 -82 110 -106 110 -12 0 -91 -40 -176 -88 -241
-137 -902 -521 -1030 -599 -63 -39 -245 -146 -405 -238 -159 -92 -420 -245
-580 -340 -159 -95 -382 -225 -495 -290 -373 -215 -474 -278 -485 -305 -17
-39 -2 -405 18 -450 8 -19 74 -105 147 -190 72 -85 219 -263 327 -395 108
-132 258 -314 333 -405 75 -91 188 -230 250 -310 323 -410 868 -1055 892
-1055 7 0 61 94 119 208 83 164 114 216 145 242 l39 33 6 299 c6 290 12 363
28 363 16 0 21 -109 21 -460 1 -283 -2 -363 -13 -395 -8 -22 -60 -131 -116
-242 -55 -112 -101 -214 -101 -229 0 -16 24 -55 68 -110 37 -47 68 -88 70 -93
1 -4 -32 -15 -75 -24 l-77 -17 -33 32 c-37 36 -48 32 -84 -31 -17 -30 -36 -44
-104 -74 -79 -35 -105 -43 -105 -32 0 3 33 70 73 151 78 157 72 152 143 123
63 -25 83 15 44 91 -23 44 -25 45 -60 25 -40 -23 -67 -17 -112 22 -44 40 -56
54 -296 343 -527 634 -576 694 -770 935 -74 94 -167 206 -205 250 -38 44 -102
127 -142 185 -83 120 -220 297 -345 448 l-85 103 -8 -243 c-12 -349 -1 -3821
11 -3845 14 -25 422 -262 709 -410 l162 -84 15 23 c8 13 41 91 74 173 70 176
318 721 553 1215 132 279 140 293 183 314 46 23 118 13 124 -17 6 -31 -51
-159 -325 -732 -66 -137 -180 -380 -253 -540 -174 -382 -194 -424 -221 -463
l-22 -33 47 -44 c45 -42 358 -233 896 -547 146 -85 285 -165 309 -178 l45 -22
31 34 c54 58 313 530 708 1288 108 208 108 208 181 170 45 -25 66 -15 66 32 0
60 -40 89 -71 52 -23 -28 -59 -36 -85 -19 -13 8 -61 66 -107 127 -47 62 -136
174 -198 248 -157 186 -394 482 -408 508 -7 12 -8 22 -2 22 20 0 218 -73 247
-91 27 -16 198 -216 390 -455 27 -33 77 -92 112 -130 71 -78 68 -79 118 18 37
73 82 120 108 112 40 -12 96 -54 96 -73 0 -11 -18 -59 -41 -108 -22 -48 -49
-109 -59 -134 l-19 -46 27 -39 c88 -130 557 -728 800 -1022 54 -64 144 -175
202 -247 104 -131 129 -161 365 -445 177 -213 193 -230 228 -230 16 0 55 15
86 34 31 19 119 70 196 114 263 149 863 498 1005 584 l74 46 89 163 c94 173
496 955 654 1271 66 131 95 201 99 235 6 56 46 -7 -473 756 l-114 167 -65 0
c-49 0 -63 -3 -58 -12 8 -14 157 -232 436 -636 92 -134 170 -252 173 -263 8
-24 26 11 -327 -644 -155 -286 -309 -573 -344 -638 -35 -66 -80 -142 -99 -171
-38 -57 -148 -170 -210 -214 -43 -31 -323 -198 -420 -252 -33 -18 -193 -111
-356 -207 -178 -104 -306 -173 -322 -173 -21 0 -48 26 -140 133 -113 131 -497
593 -612 736 -123 153 -233 290 -340 421 -227 279 -359 446 -377 475 -10 17
-18 42 -18 57 0 29 46 167 61 182 14 15 296 -284 396 -420 l48 -66 25 33 c190
251 342 415 536 575 461 384 1067 668 1522 715 139 14 243 4 367 -35 88 -28
149 -34 143 -13 -6 19 -191 139 -317 205 -124 65 -278 121 -403 146 -217 44
-461 -4 -725 -144 -311 -165 -511 -314 -807 -600 -80 -78 -146 -138 -146 -132
0 22 177 237 279 340 234 235 570 461 820 552 109 40 58 63 -68 31 -173 -45
-329 -120 -535 -256 -71 -47 -133 -84 -138 -83 -12 4 126 119 210 175 86 58
220 126 347 175 101 39 81 43 -30 5 -126 -42 -287 -134 -481 -273 -57 -42
-109 -74 -114 -72 -15 5 174 164 266 224 275 180 517 236 706 164 54 -20 98
-24 132 -11 16 6 14 11 -18 39 -135 118 -401 167 -611 113 -157 -40 -376 -171
-592 -353 -52 -44 -99 -78 -105 -76 -11 4 106 127 192 202 40 35 44 41 15 20
-85 -59 -175 -136 -312 -268 -95 -92 -147 -135 -155 -130 -7 4 -63 54 -124
112 -155 144 -418 352 -430 340 -2 -3 47 -46 110 -97 126 -102 146 -121 125
-121 -8 0 -57 32 -109 71 -240 179 -399 270 -532 306 -88 24 -281 24 -368 0
-117 -32 -300 -133 -285 -157 10 -17 91 -11 139 9 81 35 156 45 246 32 158
-24 294 -81 471 -199 102 -69 245 -190 235 -200 -3 -2 -36 18 -73 46 -103 75
-229 155 -313 197 -82 41 -242 105 -262 105 -7 0 35 -20 94 -43 116 -47 281
-142 372 -214 57 -46 72 -72 19 -35 -52 36 -257 149 -328 180 -128 56 -261 88
-344 83 -37 -2 -17 -15 74 -51 276 -109 566 -310 826 -572 115 -116 265 -295
256 -305 -4 -3 -68 54 -144 127 -426 411 -817 653 -1203 745 -41 10 -81 22
-88 28 -18 14 -106 145 -132 196 -11 22 -20 52 -20 67 0 14 51 134 113 265
l112 239 42 -6 c41 -6 42 -6 52 32 6 22 11 74 11 116 0 77 1 81 89 270 149
323 199 435 237 526 20 48 50 105 68 127 17 22 47 67 66 99 45 76 127 138 224
169 60 19 92 22 211 21 176 -2 254 -21 422 -104 67 -33 128 -60 136 -60 8 0
61 22 118 49 124 58 206 86 313 106 277 53 509 -43 594 -246 29 -71 73 -129
97 -129 6 0 18 12 25 26 17 30 43 46 63 38 9 -3 28 -23 43 -45 l27 -39 79 0
c63 0 77 3 71 13 -31 50 -208 298 -223 312 -17 15 -20 14 -59 -26 -23 -24 -41
-47 -41 -51 0 -4 -4 -8 -10 -8 -6 0 -10 101 -12 260 -3 261 0 284 31 246 22
-27 50 -26 69 2 20 29 164 280 231 404 l42 76 67 21 c106 31 122 34 122 22 0
-16 -141 -294 -259 -510 -55 -102 -103 -198 -107 -214 -5 -24 5 -44 65 -130
38 -56 119 -173 178 -259 l107 -158 68 0 68 0 -109 163 c-160 240 -204 320
-209 387 -4 55 -2 59 174 409 162 324 180 355 210 367 29 12 230 70 362 104
23 6 42 16 42 23 0 7 -64 37 -142 67 -79 29 -144 55 -146 56 -9 6 384 674 411
697 13 11 27 15 41 11 29 -9 268 -150 870 -513 148 -90 316 -188 373 -219 123
-66 176 -109 205 -166 29 -56 36 -215 37 -868 l1 -518 75 0 75 0 0 723 c0 564
-3 727 -12 739 -15 17 -220 143 -438 268 -80 46 -356 210 -615 365 -563 337
-595 355 -628 355 -35 0 -96 -87 -217 -305 -104 -189 -289 -517 -294 -522 -5
-5 -127 41 -124 47 2 3 94 186 204 407 219 435 239 483 221 506 -7 8 -158 102
-337 207 -644 382 -1067 635 -1195 715 -191 120 -172 115 -197 58z m266 -254
c67 -40 186 -110 266 -157 134 -79 361 -213 685 -406 179 -106 359 -236 363
-261 1 -11 -18 -56 -43 -100 -25 -44 -102 -192 -171 -330 -146 -290 -172 -335
-188 -335 -6 0 -47 14 -91 31 -44 17 -159 59 -255 94 -96 35 -310 116 -475
180 -165 64 -341 131 -391 151 -50 19 -98 42 -106 52 -18 21 -163 270 -172
296 -7 21 30 111 175 424 128 274 198 415 213 424 30 20 75 5 190 -63z m-1533
-151 c29 -25 97 -114 176 -233 43 -66 118 -177 165 -247 91 -133 114 -187 103
-247 -4 -20 -39 -101 -78 -181 -83 -167 -56 -145 -307 -242 -433 -166 -477
-180 -585 -183 -61 -1 -120 -9 -151 -19 -58 -19 -122 -70 -154 -121 -24 -38
-51 -50 -342 -150 -179 -62 -213 -78 -189 -94 8 -5 98 -30 200 -56 102 -25
215 -54 251 -64 l65 -18 3 -198 2 -199 -29 -30 c-40 -43 -51 -68 -51 -116 0
-36 7 -48 50 -94 67 -71 67 -112 0 -146 -45 -23 -77 -71 -85 -125 -4 -30 2
-57 23 -108 l28 -69 -23 -140 c-15 -96 -26 -222 -33 -401 -6 -144 -15 -280
-21 -302 -11 -40 -110 -238 -197 -392 -46 -81 -64 -99 -84 -87 -23 14 -464
551 -923 1124 -170 212 -341 423 -380 470 -106 126 -345 424 -387 483 -51 72
-79 149 -85 237 -6 89 6 142 47 199 36 49 55 63 270 190 91 53 287 170 435
258 149 88 331 195 405 238 74 43 302 178 505 300 204 122 489 291 635 375
146 84 346 201 445 260 260 155 262 156 296 128z m739 -1008 c0 -5 -5 -10 -11
-10 -5 0 -85 -29 -177 -65 -448 -173 -1107 -403 -1119 -391 -17 17 520 231
872 348 159 53 381 118 433 128 1 0 2 -4 2 -10z m554 -86 c224 -82 599 -223
604 -229 2 -2 1 -8 -2 -14 -7 -11 -28 -4 -490 171 -165 62 -301 119 -304 126
-2 6 -1 12 3 12 4 0 89 -30 189 -66z m-904 -103 c0 -10 -19 -18 -172 -70 -65
-22 -118 -36 -118 -32 0 10 66 37 190 80 97 33 100 34 100 22z m-1114 -283
l-31 -62 -6 -322 c-3 -176 -9 -326 -13 -332 -4 -7 -14 -12 -22 -12 -12 0 -14
48 -14 318 0 189 4 332 11 355 10 36 76 117 96 117 5 0 -4 -28 -21 -62z m1469
-146 c-6 -5 -53 -17 -105 -27 -99 -19 -454 -119 -550 -155 -107 -40 -130 -53
-134 -74 -5 -26 -44 -560 -53 -721 l-6 -118 44 30 c105 70 226 99 388 90 58
-3 144 -15 191 -27 103 -26 270 -105 325 -154 l40 -35 -98 40 c-175 72 -301
100 -472 106 -208 8 -319 -19 -409 -99 -26 -22 -50 -38 -53 -34 -9 8 15 608
31 794 12 137 16 156 37 179 47 51 274 139 448 173 144 28 396 50 376 32z
m-265 -120 c0 -4 -50 -22 -110 -41 -61 -19 -109 -36 -107 -38 2 -2 48 6 103
18 120 25 304 37 304 20 0 -6 -11 -11 -24 -11 -28 0 -338 -69 -346 -77 -3 -3
20 -3 50 1 110 13 303 26 308 21 10 -10 -6 -15 -154 -45 -162 -34 -204 -50
-97 -39 38 5 80 8 96 8 50 1 28 -17 -43 -34 -38 -9 -70 -20 -70 -22 0 -3 82
-3 183 1 110 5 178 4 172 -2 -5 -5 -93 -23 -195 -41 -102 -18 -192 -37 -200
-42 -9 -5 38 -9 120 -10 l135 -1 -99 -14 c-54 -7 -101 -16 -104 -19 -3 -3 80
-5 184 -5 197 0 233 -12 72 -25 -106 -9 -126 -25 -31 -26 l68 -2 -60 -9 c-33
-5 -91 -15 -130 -23 l-70 -13 160 -2 c179 -2 174 -9 -25 -35 -69 -9 -127 -19
-129 -21 -2 -2 61 -4 142 -4 152 0 202 -13 94 -24 -126 -12 -247 -30 -247 -37
0 -3 80 -9 177 -13 98 -3 181 -10 186 -15 8 -8 -81 -23 -338 -58 l-130 -18
200 -5 c179 -4 192 -6 130 -14 l-70 -9 83 -25 c84 -26 112 -49 45 -39 -21 4
-83 9 -138 11 l-100 6 50 -16 c28 -8 80 -24 118 -35 70 -21 95 -46 32 -35
-137 26 -350 33 -465 16 -36 -6 -85 -13 -110 -16 l-45 -5 30 18 30 17 -35 6
-35 6 40 22 40 23 -47 -6 c-27 -4 -48 -2 -48 3 0 4 27 21 60 37 33 16 58 30
56 33 -3 2 -29 -3 -59 -12 -64 -19 -67 -19 -67 -7 0 5 24 20 53 34 36 18 45
26 30 26 -12 1 -33 -3 -47 -9 -43 -16 -30 7 19 36 25 14 44 28 42 31 -3 2 -28
-5 -56 -16 -69 -26 -64 -9 9 31 33 18 60 36 60 40 0 4 -25 -2 -56 -13 -30 -12
-58 -18 -61 -15 -3 3 23 23 58 45 66 42 60 53 -11 25 -61 -25 -59 -10 4 27 31
19 56 37 56 41 0 4 -20 0 -46 -9 -65 -22 -65 -9 2 28 66 38 60 49 -10 19 -26
-11 -50 -20 -53 -20 -13 0 24 34 64 57 24 14 42 27 40 30 -3 2 -28 -5 -58 -16
-29 -11 -55 -19 -57 -16 -2 2 24 22 58 44 71 46 70 47 -7 25 -30 -9 -57 -14
-59 -11 -3 3 25 23 63 46 76 46 77 48 10 25 -67 -23 -78 -13 -25 22 25 16 54
34 64 41 11 7 -8 3 -40 -7 -66 -22 -76 -24 -76 -11 0 4 26 22 58 39 63 35 60
39 -11 18 -40 -12 -47 -12 -47 0 0 19 130 79 227 104 117 30 263 48 263 32z
m1339 -224 c6 -46 16 -123 22 -173 14 -120 25 -649 13 -644 -27 12 -154 103
-154 111 0 6 25 -4 55 -21 30 -17 57 -31 60 -31 11 0 -5 378 -31 743 -6 84 -5
97 8 97 12 0 19 -20 27 -82z m-2291 8 c120 -30 230 -60 244 -67 59 -26 49 -82
-56 -307 -163 -349 -337 -717 -342 -722 -3 -3 -12 4 -20 14 -23 32 -18 123 11
184 34 74 32 111 -7 160 -18 22 -46 48 -62 58 -37 25 -57 70 -45 102 5 13 25
42 44 65 46 53 52 89 26 157 -18 48 -21 77 -21 233 0 97 2 177 5 177 3 0 103
-24 223 -54z m2626 -38 c-41 -69 -115 -177 -125 -183 -16 -10 -99 76 -99 103
0 29 23 43 113 68 97 27 121 29 111 12z m-2932 -331 c-14 -15 -22 -36 -22 -58
0 -19 -4 -40 -9 -48 -8 -13 -12 -13 -26 -1 -58 48 -24 127 54 129 l24 1 -21
-23z m553 -392 c-8 -119 -27 -177 -128 -385 -47 -96 -117 -241 -155 -322 -39
-82 -75 -148 -80 -148 -5 0 -12 53 -16 119 -10 162 3 211 118 451 52 107 117
247 146 310 29 63 64 135 79 160 l26 45 8 -70 c4 -38 5 -110 2 -160z m-514 45
c17 0 9 -18 -11 -23 -16 -4 -20 -14 -20 -52 0 -38 -4 -48 -20 -52 -23 -6 -25
-14 -8 -31 17 -17 4 -24 -25 -13 -55 21 -66 95 -21 142 26 28 56 40 82 33 8
-2 18 -4 23 -4z m-2218 -130 c14 -11 56 -57 94 -103 37 -45 116 -138 174 -207
58 -69 157 -190 219 -269 62 -80 181 -226 264 -325 84 -100 219 -264 301 -366
82 -102 204 -248 270 -325 203 -237 221 -264 211 -326 -3 -22 -30 -94 -59
-161 -30 -68 -64 -152 -77 -187 -21 -56 -32 -70 -98 -125 -73 -59 -74 -61 -46
-64 16 -2 33 -7 38 -12 9 -9 -138 -346 -324 -745 -62 -132 -144 -307 -182
-390 -39 -82 -90 -180 -114 -217 -68 -106 -102 -110 -244 -29 -47 26 -155 88
-240 136 -201 113 -247 142 -255 163 -3 9 -6 241 -6 517 1 275 -4 574 -9 665
-23 365 -16 2302 9 2363 13 32 38 35 74 7z m2225 -1128 c-2 -65 -7 -106 -13
-105 -11 3 -19 238 -9 262 13 32 25 -50 22 -157z m-131 -1087 c115 -16 245
-52 267 -76 12 -13 9 -12 -119 15 -38 9 -106 18 -150 20 l-80 5 67 -14 c66
-14 209 -59 236 -74 36 -20 -13 -16 -128 10 -164 37 -177 36 -55 -5 127 -43
318 -125 415 -178 107 -58 252 -149 247 -154 -2 -3 -58 21 -123 52 -385 182
-684 276 -926 291 -111 7 -129 13 -107 39 32 39 176 81 286 83 29 1 105 -6
170 -14z m3716 -11 c76 -17 177 -59 177 -74 0 -5 -21 -11 -47 -14 -349 -42
-606 -121 -962 -296 -90 -44 -166 -79 -168 -76 -7 7 184 116 352 201 88 44
225 102 303 130 79 27 140 51 134 53 -5 1 -69 -11 -142 -28 -150 -34 -140 -33
-140 -21 0 11 122 53 235 80 68 17 74 20 40 20 -54 1 -211 -25 -264 -44 -49
-17 -75 -19 -67 -6 10 15 148 62 227 76 103 18 237 18 322 -1z m-3823 -209
c16 -8 39 -29 52 -47 12 -18 102 -128 200 -245 321 -385 493 -604 527 -671 40
-78 36 -92 -88 -321 -44 -80 -156 -292 -251 -471 -198 -374 -247 -459 -302
-523 -49 -59 -102 -76 -159 -54 -73 29 -747 416 -894 513 -66 44 -101 105 -91
159 4 19 29 83 55 142 55 124 306 686 391 878 51 114 158 343 275 589 l37 79
110 -7 c64 -4 122 -13 138 -21z m930 -431 c67 -42 124 -84 127 -92 7 -17 -22
-42 -47 -42 -9 0 -44 25 -77 55 -71 63 -150 155 -134 155 5 0 65 -34 131 -76z"/>
<path d="M4479 4408 c-6 -12 -14 -49 -17 -83 l-5 -62 -81 -6 c-77 -6 -153 -24
-142 -34 2 -3 50 -20 106 -39 171 -57 270 -109 625 -324 l160 -96 165 99 c331
198 473 273 600 313 66 21 120 41 120 44 0 16 -61 33 -137 37 l-82 6 -7 46
c-17 130 -33 136 -89 31 -51 -97 -149 -195 -325 -326 -183 -136 -225 -164
-247 -164 -22 0 -222 143 -363 260 -105 86 -173 167 -221 262 -32 63 -42 69
-60 36z"/>
<path d="M7906 3948 c4 -7 31 -45 61 -85 29 -40 98 -137 154 -215 168 -236
292 -398 305 -398 19 0 61 62 138 208 92 172 244 450 264 480 l14 22 -68 0
-69 0 -84 -148 c-145 -253 -194 -322 -231 -322 -19 0 -108 114 -270 348 l-85
122 -68 0 c-52 0 -66 -3 -61 -12z"/>
<path d="M9002 3948 c-5 -7 -90 -164 -187 -348 -98 -184 -201 -378 -230 -431
-28 -53 -54 -103 -58 -111 -6 -17 -5 -18 197 -318 252 -372 312 -441 371 -426
19 5 25 16 34 59 31 159 36 408 24 1160 l-6 427 -67 0 c-42 0 -71 -5 -78 -12z
m5 -394 c12 -42 19 -833 7 -893 -10 -47 -39 -40 -102 25 -69 71 -188 254 -209
322 -24 74 -12 109 105 330 96 181 154 266 176 259 6 -2 16 -21 23 -43z"/>
<path d="M8401 3084 c-25 -32 -26 -46 -6 -84 21 -40 43 -38 61 7 14 33 14 40
0 70 -19 40 -28 41 -55 7z"/>
<path d="M8418 2859 c-20 -31 -164 -294 -258 -469 -92 -172 -223 -411 -361
-662 -98 -176 -118 -218 -105 -218 4 0 55 30 506 295 129 77 323 189 430 251
218 126 250 150 250 188 0 31 -10 48 -101 171 -36 50 -118 162 -182 250 -64
88 -127 173 -140 189 l-24 30 -15 -25z m129 -336 c137 -201 148 -238 89 -295
-31 -30 -350 -230 -435 -273 -54 -27 -94 -36 -102 -24 -14 24 21 121 108 294
98 194 217 405 236 417 6 3 14 5 17 3 4 -2 43 -57 87 -122z"/>
<path d="M4268 2233 c-106 -175 -283 -493 -496 -888 -76 -143 -161 -295 -187
-338 -40 -67 -45 -81 -34 -92 8 -8 133 -82 279 -166 146 -83 346 -200 445
-259 99 -59 314 -184 479 -279 379 -217 341 -213 599 -68 355 199 544 307 559
319 17 12 12 20 -49 98 -253 320 -386 486 -448 560 -64 76 -342 418 -728 897
-140 174 -304 366 -317 371 -4 1 -50 -68 -102 -155z m203 -155 c117 -130 262
-300 391 -458 69 -85 266 -326 437 -535 324 -395 421 -524 421 -563 0 -27 -26
-46 -230 -162 -85 -48 -191 -108 -235 -134 -107 -62 -151 -63 -262 -5 -129 68
-456 255 -643 367 -199 120 -553 358 -588 395 l-23 25 64 123 c114 219 436
806 530 967 22 36 38 52 52 52 13 0 45 -27 86 -72z"/>
</g>
<g fill="#000000">
<path d="M180 0H1097V168H370V668H1039V836H370V1322H1088V1490H180Z" transform="translate(384.28,535.00) scale(0.046875,-0.046875)"/>
<path d="M57 0H273L536 378C613 488 650 546 699 640C749 542 785 487 860 378L1121 0H1340L811 770L1312 1490H1097L878 1174C790 1047 754 989 701 885C647 990 612 1046 525 1174L310 1490H90L591 763Z" transform="translate(441.98,535.00) scale(0.046875,-0.046875)"/>
<path d="M783 -20C1088 -20 1332 166 1384 469H1194C1152 266 978 156 783 156C516 156 307 363 307 744C307 1126 515 1334 783 1334C977 1334 1152 1225 1194 1021H1384C1331 1328 1085 1510 783 1510C401 1510 122 1217 122 744C122 272 401 -20 783 -20Z" transform="translate(507.47,535.00) scale(0.046875,-0.046875)"/>
<path d="M180 0H1097V168H370V668H1039V836H370V1322H1088V1490H180Z" transform="translate(577.59,535.00) scale(0.046875,-0.046875)"/>
<path d="M180 0H1060V168H370V1490H180Z" transform="translate(635.30,535.00) scale(0.046875,-0.046875)"/>
<path d="M180 0H1060V168H370V1490H180Z" transform="translate(689.58,535.00) scale(0.046875,-0.046875)"/>
<path d="M180 0H1097V168H370V668H1039V836H370V1322H1088V1490H180Z" transform="translate(743.86,535.00) scale(0.046875,-0.046875)"/>
<path d="M180 0H371V850C371 922 364 1071 356 1262C472 1055 529 955 597 848L1137 0H1363V1490H1173V576C1173 496 1174 369 1186 225C1118 360 1050 474 1010 537L404 1490H180Z" transform="translate(801.56,535.00) scale(0.046875,-0.046875)"/>
<path d="M783 -20C1088 -20 1332 166 1384 469H1194C1152 266 978 156 783 156C516 156 307 363 307 744C307 1126 515 1334 783 1334C977 1334 1152 1225 1194 1021H1384C1331 1328 1085 1510 783 1510C401 1510 122 1217 122 744C122 272 401 -20 783 -20Z" transform="translate(873.89,535.00) scale(0.046875,-0.046875)"/>
<path d="M180 0H1097V168H370V668H1039V836H370V1322H1088V1490H180Z" transform="translate(944.02,535.00) scale(0.046875,-0.046875)"/>
</g>
</svg>