<?xml version="1.0" encoding="UTF-8" standalone="no"?><!DOCTYPE svg PUBLIC "-//W3C//DTD SVG 1.1//EN" "http://www.w3.org/Graphics/SVG/1.1/DTD/svg11.dtd"><svg width="100%" height="100%" viewBox="0 0 1066 191" version="1.1" xmlns="http://www.w3.org/2000/svg" xmlns:xlink="http://www.w3.org/1999/xlink" xml:space="preserve" xmlns:serif="http://www.serif.com/" style="fill-rule:evenodd;clip-rule:evenodd;stroke-linejoin:round;stroke-miterlimit:2;"><g><path d="M392.396,3.642l-392.396,-0l0,137.066l16.658,0l0,-120.283l359.08,0l-0,120.283l16.658,0l-0,-137.066Z" style="fill:#8fd2c7;fill-rule:nonzero;"/><rect x="85.679" y="71.896" width="16.621" height="68.25" style="fill:#8fd2c7;fill-rule:nonzero;"/><rect x="186.929" y="71.896" width="16.621" height="68.25" style="fill:#8fd2c7;fill-rule:nonzero;"/><rect x="135.821" y="71.896" width="16.617" height="68.25" style="fill:#8fd2c7;fill-rule:nonzero;"/><rect x="238.875" y="71.896" width="16.617" height="68.25" style="fill:#8fd2c7;fill-rule:nonzero;"/><rect x="161.787" y="140.383" width="16.617" height="50.733" style="fill:#6c6e70;fill-rule:nonzero;"/><rect x="264.842" y="140.383" width="16.621" height="50.733" style="fill:#6c6e70;fill-rule:nonzero;"/><rect x="109.846" y="140.383" width="16.617" height="50.733" style="fill:#6c6e70;fill-rule:nonzero;"/><rect x="212.9" y="140.383" width="16.617" height="50.733" style="fill:#6c6e70;fill-rule:nonzero;"/><rect x="290.154" y="71.896" width="16.621" height="68.25" style="fill:#8fd2c7;fill-rule:nonzero;"/><path d="M479.971,190.2c-0,0.554 0.279,0.829 0.833,0.829l14.2,0c2.092,0 3.996,-0.3 5.725,-0.896c1.729,-0.595 3.208,-1.425 4.446,-2.496c1.238,-1.062 2.196,-2.345 2.879,-3.837c0.684,-1.492 1.025,-3.133 1.025,-4.925c0,-1.533 -0.225,-2.9 -0.671,-4.092c-0.45,-1.196 -1.058,-2.229 -1.825,-3.104c-0.766,-0.875 -1.666,-1.6 -2.687,-2.175c-1.021,-0.575 -2.108,-1.012 -3.263,-1.312c2.005,-0.809 3.68,-2.1 5.021,-3.867c1.346,-1.771 2.017,-3.937 2.017,-6.496c-0,-1.746 -0.321,-3.337 -0.958,-4.762c-0.642,-1.43 -1.551,-2.646 -2.721,-3.65c-1.171,-1 -2.571,-1.78 -4.192,-2.334c-1.621,-0.554 -3.408,-0.829 -5.371,-0.829l-13.625,0c-0.554,0 -0.833,0.275 -0.833,0.829l-0,43.117Zm3.008,-23.225l0,-17.908l11.45,-0c3.071,-0 5.5,0.779 7.292,2.333c1.792,1.558 2.687,3.742 2.687,6.558c0,2.642 -0.833,4.809 -2.496,6.492c-1.662,1.683 -4.008,2.525 -7.033,2.525l-11.9,-0Zm-0.062,21.367l-0,-18.613l11.962,0c1.533,0 2.963,0.204 4.284,0.609c1.32,0.404 2.474,0.999 3.454,1.787c0.979,0.792 1.758,1.75 2.333,2.879c0.575,1.134 0.867,2.4 0.867,3.808c-0,1.405 -0.259,2.688 -0.771,3.838c-0.513,1.15 -1.233,2.154 -2.171,3.004c-0.942,0.854 -2.058,1.517 -3.362,1.983c-1.301,0.471 -2.717,0.705 -4.251,0.705l-12.345,-0Zm35.5,-10.65c1.191,2.795 2.837,5.225 4.925,7.291c2.087,2.071 4.533,3.705 7.325,4.896c2.791,1.192 5.783,1.788 8.987,1.788c3.196,-0 6.204,-0.596 9.017,-1.788c2.816,-1.191 5.267,-2.825 7.358,-4.896c2.088,-2.066 3.734,-4.496 4.925,-7.291c1.192,-2.792 1.792,-5.788 1.792,-8.988c-0,-3.196 -0.6,-6.204 -1.792,-9.021c-1.191,-2.812 -2.837,-5.254 -4.925,-7.32c-2.091,-2.071 -4.542,-3.713 -7.358,-4.93c-2.813,-1.212 -5.821,-1.821 -9.017,-1.821c-3.204,0 -6.196,0.609 -8.987,1.821c-2.792,1.217 -5.238,2.859 -7.325,4.93c-2.088,2.066 -3.734,4.508 -4.925,7.32c-1.196,2.817 -1.792,5.825 -1.792,9.021c-0,3.2 0.596,6.196 1.792,8.988Zm2.621,-16.888c1.066,-2.45 2.504,-4.596 4.316,-6.429c1.817,-1.833 3.946,-3.283 6.4,-4.35c2.454,-1.067 5.084,-1.6 7.9,-1.6c2.813,-0 5.446,0.533 7.9,1.6c2.45,1.067 4.596,2.517 6.429,4.35c1.83,1.833 3.284,3.979 4.35,6.429c1.067,2.454 1.596,5.088 1.596,7.9c0,2.817 -0.529,5.438 -1.596,7.871c-1.066,2.429 -2.52,4.563 -4.35,6.396c-1.833,1.833 -3.979,3.271 -6.429,4.317c-2.454,1.045 -5.087,1.566 -7.9,1.566c-2.816,0 -5.446,-0.521 -7.9,-1.566c-2.454,-1.046 -4.583,-2.484 -6.4,-4.317c-1.812,-1.833 -3.25,-3.967 -4.316,-6.396c-1.067,-2.433 -1.6,-5.054 -1.6,-7.871c-0,-2.812 0.533,-5.446 1.6,-7.9Zm50.695,16.888c1.217,2.795 2.867,5.225 4.959,7.291c2.087,2.071 4.541,3.705 7.354,4.896c2.817,1.192 5.825,1.788 9.021,1.788c2.858,-0 5.629,-0.5 8.316,-1.5c2.684,-1 5.117,-2.567 7.292,-4.704c0.383,-0.384 0.383,-0.746 0,-1.088l-1.088,-1.083c-0.3,-0.213 -0.641,-0.171 -1.025,0.125c-1.92,1.621 -3.954,2.92 -6.108,3.904c-2.154,0.983 -4.616,1.471 -7.387,1.471c-2.813,-0 -5.438,-0.534 -7.867,-1.6c-2.433,-1.067 -4.546,-2.504 -6.333,-4.317c-1.792,-1.813 -3.2,-3.938 -4.225,-6.367c-1.021,-2.429 -1.534,-5.029 -1.534,-7.804c0,-2.771 0.513,-5.383 1.534,-7.837c1.025,-2.45 2.433,-4.592 4.225,-6.43c1.787,-1.829 3.9,-3.279 6.333,-4.345c2.429,-1.067 5.054,-1.6 7.867,-1.6c2.645,-0 5.096,0.466 7.354,1.404c2.262,0.942 4.308,2.221 6.141,3.842c0.384,0.383 0.746,0.404 1.088,0.062l1.025,-1.087c0.171,-0.171 0.246,-0.363 0.225,-0.576c-0.021,-0.212 -0.117,-0.404 -0.287,-0.575c-2.092,-1.92 -4.384,-3.391 -6.88,-4.416c-2.495,-1.021 -5.383,-1.534 -8.666,-1.534c-3.196,0 -6.204,0.609 -9.021,1.821c-2.813,1.217 -5.267,2.859 -7.354,4.93c-2.092,2.066 -3.742,4.508 -4.959,7.32c-1.216,2.817 -1.825,5.825 -1.825,9.021c0,3.2 0.609,6.196 1.825,8.988Zm47.305,12.508c-0,0.554 0.274,0.829 0.829,0.829l1.346,0c0.554,0 0.829,-0.275 0.829,-0.829l-0,-20.792l28.725,0l-0,20.792c-0,0.554 0.275,0.829 0.829,0.829l1.346,0c0.554,0 0.829,-0.275 0.829,-0.829l-0,-43.117c-0,-0.554 -0.275,-0.829 -0.829,-0.829l-1.346,0c-0.554,0 -0.829,0.275 -0.829,0.829l-0,19.638l-28.725,-0l-0,-19.638c-0,-0.554 -0.275,-0.829 -0.829,-0.829l-1.346,0c-0.555,0 -0.829,0.275 -0.829,0.829l-0,43.117Zm47.783,-15.483c-0,2.433 0.391,4.691 1.183,6.783c0.788,2.087 1.909,3.879 3.358,5.371c1.451,1.496 3.209,2.667 5.28,3.521c2.066,0.85 4.354,1.275 6.875,1.275c2.558,-0 4.87,-0.425 6.941,-1.275c2.067,-0.854 3.838,-2.025 5.309,-3.521c1.471,-1.492 2.6,-3.284 3.387,-5.371c0.792,-2.092 1.183,-4.35 1.183,-6.783l0,-27.634c0,-0.554 -0.275,-0.829 -0.829,-0.829l-1.279,0c-0.6,0 -0.896,0.275 -0.896,0.829l0,27.379c0,2.046 -0.32,3.946 -0.958,5.692c-0.642,1.75 -1.558,3.263 -2.754,4.542c-1.192,1.279 -2.642,2.271 -4.346,2.975c-1.708,0.704 -3.629,1.058 -5.758,1.058c-2.134,0 -4.042,-0.362 -5.725,-1.092c-1.688,-0.72 -3.125,-1.725 -4.321,-3.004c-1.192,-1.279 -2.1,-2.791 -2.717,-4.541c-0.617,-1.75 -0.929,-3.646 -0.929,-5.696l-0,-27.313c-0,-0.554 -0.275,-0.829 -0.829,-0.829l-1.346,0c-0.554,0 -0.829,0.275 -0.829,0.829l-0,27.634Zm42.987,15.483c-0.129,0.554 0.104,0.829 0.7,0.829l1.534,0c0.429,0 0.683,-0.233 0.77,-0.704l7.23,-37.483l0.129,-0l12.921,38.316c0.083,0.213 0.2,0.35 0.35,0.413c0.15,0.066 0.308,0.096 0.479,0.096l0.258,-0c0.467,-0 0.767,-0.171 0.896,-0.509l12.921,-38.316l0.125,-0l7.229,37.483c0.083,0.471 0.342,0.704 0.767,0.704l1.537,0c0.596,0 0.834,-0.275 0.704,-0.829l-9.083,-44.137c-0.088,-0.301 -0.279,-0.451 -0.579,-0.451l-0.7,0c-0.3,0 -0.513,0.15 -0.642,0.451l-13.242,39.274l-0.125,0l-13.179,-39.274c-0.129,-0.301 -0.341,-0.451 -0.637,-0.451l-0.704,0c-0.3,0 -0.492,0.15 -0.579,0.451l-9.08,44.137Z" style="fill:#636466;fill-rule:nonzero;"/><path d="M479.012,117.85c0,0.342 0.117,0.629 0.35,0.862c0.238,0.238 0.525,0.355 0.867,0.355l15.479,-0c1.963,-0 3.784,-0.309 5.471,-0.929c1.683,-0.617 3.154,-1.471 4.413,-2.559c1.258,-1.087 2.25,-2.387 2.975,-3.904c0.725,-1.513 1.087,-3.163 1.087,-4.954c0,-1.45 -0.279,-2.763 -0.833,-3.933c-0.554,-1.176 -1.246,-2.196 -2.079,-3.071c-0.83,-0.875 -1.725,-1.6 -2.684,-2.179c-0.962,-0.576 -1.87,-0.988 -2.721,-1.246c0.767,-0.338 1.555,-0.83 2.367,-1.471c0.809,-0.638 1.567,-1.396 2.271,-2.271c0.704,-0.875 1.279,-1.854 1.725,-2.942c0.45,-1.087 0.675,-2.25 0.675,-3.487c0,-1.663 -0.342,-3.217 -1.025,-4.667c-0.683,-1.45 -1.629,-2.712 -2.846,-3.775c-1.216,-1.067 -2.646,-1.896 -4.287,-2.496c-1.642,-0.596 -3.421,-0.895 -5.342,-0.895l-14.646,-0c-0.342,-0 -0.629,0.116 -0.867,0.35c-0.233,0.237 -0.35,0.524 -0.35,0.866l0,42.346Zm8.255,-24.754l-0,-11.196l6.841,0c1.621,0 2.942,0.504 3.967,1.504c1.025,1 1.537,2.313 1.537,3.934c0,1.62 -0.512,2.983 -1.537,4.091c-1.025,1.113 -2.346,1.667 -3.967,1.667l-6.841,-0Zm-0,18.421l-0,-11.384l6.97,0c0.809,0 1.609,0.138 2.396,0.413c0.792,0.279 1.496,0.662 2.113,1.154c0.621,0.487 1.112,1.075 1.471,1.758c0.362,0.68 0.545,1.43 0.545,2.238c0,1.667 -0.554,3.05 -1.662,4.158c-1.113,1.109 -2.475,1.663 -4.096,1.663l-7.737,-0Zm31.216,6.333c0,0.342 0.117,0.629 0.35,0.862c0.234,0.238 0.521,0.355 0.863,0.355l26.033,-0c0.342,-0 0.629,-0.117 0.863,-0.355c0.237,-0.233 0.354,-0.52 0.354,-0.862l-0,-5.246c-0,-0.341 -0.117,-0.629 -0.354,-0.862c-0.234,-0.234 -0.521,-0.355 -0.863,-0.355l-18.933,0l-0,-11.191l15.8,-0c0.337,-0 0.625,-0.117 0.866,-0.354c0.234,-0.234 0.35,-0.521 0.35,-0.863l0,-5.308c0,-0.342 -0.116,-0.629 -0.35,-0.867c-0.241,-0.233 -0.529,-0.35 -0.866,-0.35l-15.8,0l-0,-10.487l18.933,-0c0.342,-0 0.629,-0.121 0.863,-0.355c0.237,-0.233 0.354,-0.52 0.354,-0.862l-0,-5.246c-0,-0.342 -0.117,-0.629 -0.354,-0.866c-0.234,-0.234 -0.521,-0.35 -0.863,-0.35l-26.033,-0c-0.342,-0 -0.629,0.116 -0.863,0.35c-0.233,0.237 -0.35,0.524 -0.35,0.866l0,42.346Zm37.613,0c-0,0.342 0.116,0.629 0.35,0.862c0.233,0.238 0.521,0.355 0.862,0.355l5.888,-0c0.337,-0 0.625,-0.117 0.862,-0.355c0.234,-0.233 0.35,-0.52 0.35,-0.862l0,-16.313l7.1,0l8.509,16.955c0.087,0.125 0.204,0.254 0.354,0.383c0.15,0.129 0.371,0.192 0.671,0.192l6.716,-0c0.555,-0 0.925,-0.2 1.117,-0.609c0.192,-0.404 0.183,-0.821 -0.029,-1.25l-8.763,-16.245c1.405,-0.555 2.684,-1.267 3.838,-2.142c1.15,-0.875 2.141,-1.867 2.975,-2.975c0.829,-1.109 1.479,-2.313 1.95,-3.617c0.466,-1.3 0.7,-2.696 0.7,-4.187c-0,-1.921 -0.363,-3.713 -1.083,-5.375c-0.725,-1.663 -1.73,-3.113 -3.009,-4.35c-1.279,-1.234 -2.762,-2.217 -4.446,-2.942c-1.683,-0.725 -3.487,-1.087 -5.404,-1.087l-18.296,-0c-0.341,-0 -0.629,0.116 -0.862,0.35c-0.234,0.237 -0.35,0.524 -0.35,0.866l-0,42.346Zm8.375,-23.154l-0,-12.729l10.429,-0c0.854,-0 1.662,0.158 2.429,0.479c0.771,0.321 1.442,0.767 2.017,1.341c0.575,0.575 1.033,1.238 1.375,1.984c0.342,0.746 0.512,1.546 0.512,2.4c0,0.896 -0.17,1.737 -0.512,2.525c-0.342,0.787 -0.8,1.483 -1.375,2.079c-0.575,0.596 -1.246,1.067 -2.017,1.408c-0.767,0.342 -1.575,0.513 -2.429,0.513l-10.429,-0Zm32.816,11.033c1.192,2.792 2.838,5.213 4.926,7.259c2.087,2.049 4.52,3.67 7.291,4.862c2.775,1.196 5.758,1.792 8.958,1.792c2.301,-0 4.421,-0.213 6.363,-0.638c1.942,-0.429 3.617,-0.9 5.025,-1.408c1.663,-0.6 3.154,-1.304 4.475,-2.113c0.342,-0.254 0.512,-0.596 0.512,-1.025l0,-16.375c0,-0.341 -0.108,-0.629 -0.32,-0.862c-0.213,-0.233 -0.492,-0.354 -0.834,-0.354l-12.279,-0c-0.812,-0 -1.216,0.408 -1.216,1.216l-0,5.055c-0,0.341 0.116,0.616 0.354,0.829c0.233,0.216 0.52,0.32 0.862,0.32l5.117,0l-0,5.438c-0.638,0.254 -1.621,0.588 -2.942,0.992c-1.325,0.408 -2.879,0.608 -4.671,0.608c-2.004,0 -3.879,-0.392 -5.629,-1.183c-1.75,-0.788 -3.275,-1.842 -4.575,-3.167c-1.3,-1.321 -2.321,-2.867 -3.067,-4.637c-0.749,-1.767 -1.12,-3.655 -1.12,-5.663c-0,-2 0.371,-3.9 1.12,-5.692c0.746,-1.791 1.759,-3.366 3.038,-4.733c1.279,-1.367 2.792,-2.442 4.542,-3.229c1.746,-0.788 3.625,-1.183 5.629,-1.183c3.625,-0 6.846,1.237 9.658,3.708c0.596,0.512 1.154,0.512 1.663,-0l3.966,-4.158c0.255,-0.255 0.371,-0.555 0.35,-0.896c-0.021,-0.342 -0.158,-0.638 -0.412,-0.896c-2.175,-1.875 -4.596,-3.334 -7.263,-4.379c-2.662,-1.046 -5.45,-1.571 -8.346,-1.571c-3.2,-0 -6.183,0.608 -8.958,1.825c-2.771,1.217 -5.204,2.858 -7.291,4.925c-2.088,2.071 -3.734,4.508 -4.926,7.325c-1.195,2.817 -1.791,5.821 -1.791,9.021c-0,3.196 0.596,6.191 1.791,8.987Zm46.955,12.121c-0,0.342 0.116,0.629 0.35,0.862c0.233,0.238 0.52,0.355 0.862,0.355l15.483,-0c1.959,-0 3.784,-0.309 5.467,-0.929c1.688,-0.617 3.159,-1.471 4.413,-2.559c1.258,-1.087 2.25,-2.387 2.979,-3.904c0.725,-1.513 1.083,-3.163 1.083,-4.954c0,-1.45 -0.275,-2.763 -0.829,-3.933c-0.554,-1.176 -1.25,-2.196 -2.079,-3.071c-0.834,-0.875 -1.729,-1.6 -2.688,-2.179c-0.958,-0.576 -1.866,-0.988 -2.716,-1.246c0.766,-0.338 1.554,-0.83 2.366,-1.471c0.809,-0.638 1.563,-1.396 2.267,-2.271c0.704,-0.875 1.283,-1.854 1.729,-2.942c0.45,-1.087 0.671,-2.25 0.671,-3.487c0,-1.663 -0.342,-3.217 -1.021,-4.667c-0.683,-1.45 -1.633,-2.712 -2.85,-3.775c-1.212,-1.067 -2.642,-1.896 -4.283,-2.496c-1.642,-0.596 -3.421,-0.895 -5.342,-0.895l-14.65,-0c-0.342,-0 -0.629,0.116 -0.862,0.35c-0.234,0.237 -0.35,0.524 -0.35,0.866l-0,42.346Zm8.25,-24.754l-0,-11.196l6.845,0c1.621,0 2.942,0.504 3.967,1.504c1.021,1 1.534,2.313 1.534,3.934c-0,1.62 -0.513,2.983 -1.534,4.091c-1.025,1.113 -2.346,1.667 -3.967,1.667l-6.845,-0Zm-0,18.421l-0,-11.384l6.97,0c0.813,0 1.613,0.138 2.401,0.413c0.791,0.279 1.491,0.662 2.112,1.154c0.617,0.487 1.108,1.075 1.471,1.758c0.358,0.68 0.542,1.43 0.542,2.238c-0,1.667 -0.555,3.05 -1.663,4.158c-1.108,1.109 -2.471,1.663 -4.092,1.663l-7.741,-0Zm32.046,7.55c0.512,-0 0.916,-0.129 1.216,-0.384c0.3,-0.258 0.513,-0.554 0.642,-0.896l3.133,-6.912l19.125,0l3.138,6.912c0.212,0.471 0.458,0.801 0.733,0.992c0.279,0.192 0.65,0.288 1.121,0.288l5.562,-0c0.471,-0 0.821,-0.171 1.055,-0.513c0.237,-0.341 0.245,-0.725 0.033,-1.154l-19.7,-43.05c-0.088,-0.213 -0.204,-0.383 -0.35,-0.512c-0.15,-0.126 -0.396,-0.192 -0.738,-0.192l-0.641,-0c-0.509,-0 -0.875,0.237 -1.088,0.704l-19.896,43.05c-0.212,0.429 -0.2,0.813 0.034,1.154c0.233,0.342 0.587,0.513 1.058,0.513l5.563,-0Zm8.124,-15.292l6.271,-14.071l0.192,0l6.396,14.071l-12.859,0Zm32.18,-1.663c-0,2.434 0.454,4.717 1.371,6.846c0.916,2.134 2.175,4 3.775,5.596c1.599,1.6 3.475,2.859 5.629,3.775c2.154,0.917 4.487,1.379 7.008,1.379c2.512,0 4.858,-0.462 7.033,-1.379c2.175,-0.916 4.063,-2.175 5.663,-3.775c1.596,-1.596 2.854,-3.462 3.771,-5.596c0.92,-2.129 1.379,-4.412 1.379,-6.846l-0,-26.608c-0,-0.342 -0.121,-0.629 -0.354,-0.866c-0.234,-0.234 -0.521,-0.35 -0.863,-0.35l-6.079,-0c-0.342,-0 -0.629,0.116 -0.863,0.35c-0.233,0.237 -0.35,0.524 -0.35,0.866l0,26.225c0,1.367 -0.224,2.634 -0.674,3.809c-0.446,1.175 -1.084,2.183 -1.917,3.037c-0.829,0.854 -1.813,1.533 -2.942,2.046c-1.133,0.512 -2.4,0.766 -3.804,0.766c-1.408,0 -2.679,-0.254 -3.808,-0.766c-1.13,-0.513 -2.1,-1.204 -2.909,-2.079c-0.812,-0.871 -1.441,-1.896 -1.891,-3.071c-0.446,-1.171 -0.671,-2.442 -0.671,-3.804l-0,-26.163c-0,-0.342 -0.117,-0.629 -0.35,-0.866c-0.238,-0.234 -0.525,-0.35 -0.867,-0.35l-6.075,-0c-0.341,-0 -0.629,0.116 -0.862,0.35c-0.234,0.237 -0.35,0.524 -0.35,0.866l-0,26.608Zm44.775,-1.954l17.579,0c0.342,0 0.629,-0.108 0.862,-0.32c0.238,-0.213 0.354,-0.492 0.354,-0.834l0,-4.283c0,-0.813 -0.408,-1.217 -1.216,-1.217l-17.579,0c-0.809,0 -1.217,0.404 -1.217,1.217l0,4.283c0,0.342 0.117,0.621 0.354,0.834c0.234,0.212 0.521,0.32 0.863,0.32Zm24.679,17.438c-0.125,0.979 0.279,1.471 1.217,1.471l5.754,-0c0.3,-0 0.554,-0.104 0.77,-0.321c0.213,-0.213 0.338,-0.425 0.384,-0.642l3.708,-24.241l0.196,-0l11.321,25.141c0.212,0.467 0.575,0.704 1.087,0.704l1.15,0c0.554,0 0.917,-0.237 1.088,-0.704l11.196,-25.141l0.191,-0l3.775,24.241c0.084,0.217 0.234,0.429 0.446,0.642c0.213,0.217 0.471,0.321 0.767,0.321l5.821,-0c0.429,-0 0.746,-0.129 0.962,-0.384c0.213,-0.258 0.275,-0.621 0.192,-1.087l-7.55,-42.988c-0.042,-0.258 -0.158,-0.479 -0.35,-0.675c-0.192,-0.191 -0.463,-0.287 -0.8,-0.287l-1.025,-0c-0.513,-0 -0.875,0.216 -1.088,0.642l-14.071,30.191l-0.191,0l-14.075,-30.191c-0.213,-0.426 -0.575,-0.642 -1.088,-0.642l-1.025,-0c-0.341,-0 -0.608,0.096 -0.8,0.287c-0.191,0.196 -0.308,0.417 -0.35,0.675l-7.612,42.988Zm58.146,-15.484c-0,2.434 0.458,4.717 1.375,6.846c0.916,2.134 2.175,4 3.775,5.596c1.596,1.6 3.475,2.859 5.629,3.775c2.15,0.917 4.487,1.379 7.004,1.379c2.517,0 4.862,-0.462 7.037,-1.379c2.176,-0.916 4.063,-2.175 5.659,-3.775c1.6,-1.596 2.858,-3.462 3.775,-5.596c0.916,-2.129 1.375,-4.412 1.375,-6.846l-0,-26.608c-0,-0.342 -0.117,-0.629 -0.35,-0.866c-0.234,-0.234 -0.521,-0.35 -0.863,-0.35l-6.079,-0c-0.342,-0 -0.629,0.116 -0.862,0.35c-0.234,0.237 -0.35,0.524 -0.35,0.866l-0,26.225c-0,1.367 -0.225,2.634 -0.675,3.809c-0.446,1.175 -1.088,2.183 -1.917,3.037c-0.833,0.854 -1.812,1.533 -2.942,2.046c-1.133,0.512 -2.4,0.766 -3.808,0.766c-1.404,0 -2.675,-0.254 -3.808,-0.766c-1.129,-0.513 -2.1,-1.204 -2.909,-2.079c-0.808,-0.871 -1.437,-1.896 -1.887,-3.071c-0.446,-1.171 -0.671,-2.442 -0.671,-3.804l0,-26.163c0,-0.342 -0.117,-0.629 -0.354,-0.866c-0.234,-0.234 -0.521,-0.35 -0.863,-0.35l-6.075,-0c-0.341,-0 -0.629,0.116 -0.866,0.35c-0.234,0.237 -0.35,0.524 -0.35,0.866l-0,26.608Zm45.929,13.884c0.766,0.554 1.737,1.108 2.912,1.662c1.171,0.555 2.559,1.034 4.159,1.442c1.595,0.404 3.396,0.608 5.404,0.608c2.258,0 4.291,-0.354 6.108,-1.058c1.813,-0.704 3.358,-1.642 4.638,-2.817c1.279,-1.171 2.258,-2.512 2.941,-4.029c0.684,-1.512 1.025,-3.1 1.025,-4.762c0,-2.05 -0.404,-3.842 -1.216,-5.375c-0.809,-1.534 -1.854,-2.867 -3.134,-4c-1.279,-1.129 -2.716,-2.1 -4.316,-2.909c-1.604,-0.808 -3.167,-1.537 -4.704,-2.175c-2.605,-1.066 -4.509,-2.154 -5.726,-3.262c-1.212,-1.109 -1.82,-2.409 -1.82,-3.904c-0,-1.021 0.479,-2.025 1.437,-3.005c0.958,-0.979 2.354,-1.47 4.188,-1.47c0.9,-0 1.837,0.17 2.816,0.512c0.979,0.342 1.896,0.713 2.75,1.117c0.855,0.408 1.588,0.8 2.209,1.183c0.616,0.384 0.991,0.621 1.12,0.704c0.384,0.254 0.788,0.288 1.213,0.096c0.425,-0.192 0.767,-0.479 1.025,-0.862l2.429,-3.646c0.213,-0.342 0.292,-0.725 0.225,-1.154c-0.062,-0.425 -0.267,-0.746 -0.608,-0.959c-0.342,-0.254 -0.888,-0.616 -1.633,-1.087c-0.746,-0.467 -1.671,-0.938 -2.78,-1.409c-1.108,-0.466 -2.379,-0.883 -3.808,-1.245c-1.429,-0.363 -2.95,-0.546 -4.571,-0.546c-2.562,-0 -4.746,0.375 -6.558,1.121c-1.813,0.75 -3.296,1.708 -4.446,2.879c-1.15,1.171 -2.004,2.496 -2.558,3.966c-0.554,1.471 -0.834,2.909 -0.834,4.317c0,1.879 0.342,3.542 1.025,4.992c0.68,1.45 1.588,2.729 2.721,3.837c1.129,1.109 2.417,2.067 3.867,2.875c1.45,0.813 2.921,1.517 4.412,2.113c2.688,1.112 4.717,2.262 6.08,3.454c1.362,1.196 2.045,2.604 2.045,4.225c0,1.362 -0.554,2.525 -1.662,3.483c-1.109,0.963 -2.492,1.442 -4.158,1.442c-1.021,0 -2.088,-0.204 -3.196,-0.608c-1.109,-0.404 -2.134,-0.842 -3.071,-1.313c-0.942,-0.471 -1.721,-0.916 -2.338,-1.342c-0.616,-0.429 -0.966,-0.662 -1.054,-0.704c-0.296,-0.212 -0.671,-0.308 -1.116,-0.287c-0.45,0.021 -0.8,0.266 -1.059,0.733l-2.304,3.967c-0.296,0.512 -0.392,0.887 -0.288,1.121c0.109,0.233 0.309,0.5 0.609,0.8c0.296,0.296 0.833,0.725 1.6,1.279Zm35.371,1.854c-0,0.342 0.12,0.629 0.354,0.862c0.233,0.238 0.521,0.355 0.862,0.355l26.038,-0c0.341,-0 0.629,-0.117 0.862,-0.355c0.234,-0.233 0.354,-0.52 0.354,-0.862l0,-5.246c0,-0.341 -0.12,-0.629 -0.354,-0.862c-0.233,-0.234 -0.521,-0.355 -0.862,-0.355l-18.933,0l-0,-11.191l15.795,-0c0.342,-0 0.63,-0.117 0.867,-0.354c0.233,-0.234 0.35,-0.521 0.35,-0.863l-0,-5.308c-0,-0.342 -0.117,-0.629 -0.35,-0.867c-0.237,-0.233 -0.525,-0.35 -0.867,-0.35l-15.795,0l-0,-10.487l18.933,-0c0.341,-0 0.629,-0.121 0.862,-0.355c0.234,-0.233 0.354,-0.52 0.354,-0.862l0,-5.246c0,-0.342 -0.12,-0.629 -0.354,-0.866c-0.233,-0.234 -0.521,-0.35 -0.862,-0.35l-26.038,-0c-0.341,-0 -0.629,0.116 -0.862,0.35c-0.234,0.237 -0.354,0.524 -0.354,0.866l-0,42.346Zm36.975,-15.738c-0,2.434 0.458,4.717 1.375,6.846c0.916,2.134 2.179,4 3.775,5.596c1.6,1.6 3.475,2.859 5.629,3.775c2.154,0.917 4.487,1.379 7.004,1.379c2.517,0 4.862,-0.462 7.038,-1.379c2.175,-0.916 4.062,-2.175 5.662,-3.775c1.596,-1.596 2.854,-3.462 3.775,-5.596c0.917,-2.129 1.375,-4.412 1.375,-6.846l0,-26.608c0,-0.342 -0.121,-0.629 -0.354,-0.866c-0.234,-0.234 -0.521,-0.35 -0.863,-0.35l-6.075,-0c-0.346,-0 -0.633,0.116 -0.866,0.35c-0.234,0.237 -0.35,0.524 -0.35,0.866l-0,26.225c-0,1.367 -0.225,2.634 -0.671,3.809c-0.45,1.175 -1.092,2.183 -1.921,3.037c-0.833,0.854 -1.812,1.533 -2.942,2.046c-1.133,0.512 -2.4,0.766 -3.808,0.766c-1.404,0 -2.675,-0.254 -3.804,-0.766c-1.134,-0.513 -2.1,-1.204 -2.913,-2.079c-0.808,-0.871 -1.437,-1.896 -1.883,-3.071c-0.45,-1.171 -0.675,-2.442 -0.675,-3.804l0,-26.163c0,-0.342 -0.117,-0.629 -0.35,-0.866c-0.237,-0.234 -0.525,-0.35 -0.867,-0.35l-6.075,-0c-0.341,-0 -0.629,0.116 -0.866,0.35c-0.234,0.237 -0.35,0.524 -0.35,0.866l-0,26.608Zm43.691,15.484c-0.129,0.979 0.275,1.471 1.217,1.471l5.754,-0c0.3,-0 0.554,-0.104 0.767,-0.321c0.217,-0.213 0.342,-0.425 0.387,-0.642l3.709,-24.241l0.191,-0l11.321,25.141c0.217,0.467 0.575,0.704 1.088,0.704l1.154,0c0.554,0 0.917,-0.237 1.087,-0.704l11.192,-25.141l0.192,-0l3.775,24.241c0.087,0.217 0.237,0.429 0.45,0.642c0.212,0.217 0.466,0.321 0.766,0.321l5.821,-0c0.425,-0 0.746,-0.129 0.959,-0.384c0.212,-0.258 0.279,-0.621 0.191,-1.087l-7.546,-42.988c-0.045,-0.258 -0.162,-0.479 -0.354,-0.675c-0.192,-0.191 -0.458,-0.287 -0.796,-0.287l-1.025,-0c-0.512,-0 -0.875,0.216 -1.087,0.642l-14.075,30.191l-0.192,0l-14.071,-30.191c-0.212,-0.426 -0.575,-0.642 -1.087,-0.642l-1.025,-0c-0.342,-0 -0.609,0.096 -0.8,0.287c-0.192,0.196 -0.309,0.417 -0.35,0.675l-7.613,42.988Z" style="fill:#636466;fill-rule:nonzero;"/><path d="M479.971,46.271c-0,0.212 0.075,0.404 0.225,0.575c0.15,0.171 0.329,0.254 0.541,0.254l13.563,0c3.112,0 6.033,-0.583 8.767,-1.758c2.725,-1.171 5.116,-2.771 7.162,-4.796c2.046,-2.025 3.659,-4.404 4.829,-7.133c1.171,-2.73 1.759,-5.651 1.759,-8.767c-0,-3.067 -0.588,-5.958 -1.759,-8.663c-1.17,-2.708 -2.783,-5.075 -4.829,-7.104c-2.046,-2.025 -4.437,-3.625 -7.162,-4.796c-2.734,-1.17 -5.655,-1.758 -8.767,-1.758l-13.563,-0c-0.212,-0 -0.391,0.087 -0.541,0.254c-0.15,0.171 -0.225,0.363 -0.225,0.579l-0,43.113Zm3.008,-1.921l0,-39.275l10.809,-0c2.816,-0 5.424,0.5 7.837,1.5c2.408,1.004 4.5,2.383 6.271,4.129c1.767,1.75 3.162,3.817 4.187,6.204c1.025,2.388 1.538,4.971 1.538,7.738c-0,2.816 -0.513,5.417 -1.538,7.808c-1.025,2.388 -2.42,4.467 -4.187,6.238c-1.771,1.77 -3.863,3.154 -6.271,4.154c-2.413,1.004 -5.021,1.504 -7.837,1.504l-10.809,0Zm44.2,1.921c0,0.554 0.279,0.829 0.833,0.829l25.65,0c0.555,0 0.83,-0.275 0.83,-0.829l-0,-1.025c-0,-0.554 -0.275,-0.833 -0.83,-0.833l-23.412,-0l0,-18.934l20.279,0c0.554,0 0.833,-0.275 0.833,-0.833l0,-1.084c0,-0.554 -0.279,-0.833 -0.833,-0.833l-20.279,0l0,-17.654l23.412,-0c0.555,-0 0.83,-0.279 0.83,-0.833l-0,-1.084c-0,-0.554 -0.275,-0.833 -0.83,-0.833l-25.65,-0c-0.554,-0 -0.833,0.279 -0.833,0.833l0,43.113Zm37.742,-15.484c-0,2.434 0.396,4.692 1.183,6.784c0.788,2.092 1.908,3.879 3.359,5.371c1.449,1.496 3.208,2.666 5.274,3.521c2.071,0.854 4.363,1.279 6.88,1.279c2.558,-0 4.871,-0.425 6.941,-1.279c2.067,-0.855 3.838,-2.025 5.309,-3.521c1.47,-1.492 2.6,-3.279 3.387,-5.371c0.792,-2.092 1.184,-4.35 1.184,-6.784l-0,-27.629c-0,-0.554 -0.275,-0.833 -0.83,-0.833l-1.279,-0c-0.596,-0 -0.896,0.279 -0.896,0.833l0,27.375c0,2.046 -0.316,3.946 -0.958,5.692c-0.642,1.75 -1.558,3.267 -2.754,4.546c-1.192,1.275 -2.642,2.266 -4.346,2.971c-1.708,0.704 -3.625,1.058 -5.758,1.058c-2.134,-0 -4.042,-0.362 -5.725,-1.087c-1.688,-0.725 -3.125,-1.73 -4.317,-3.009c-1.196,-1.279 -2.104,-2.792 -2.721,-4.541c-0.621,-1.746 -0.929,-3.646 -0.929,-5.692l0,-27.313c0,-0.554 -0.275,-0.833 -0.829,-0.833l-1.342,-0c-0.554,-0 -0.833,0.279 -0.833,0.833l-0,27.629Zm53.346,15.484c-0,0.554 0.279,0.829 0.833,0.829l1.154,0c0.679,0 1.021,-0.275 1.021,-0.829l0,-41.196l12.283,-0c0.554,-0 0.83,-0.279 0.83,-0.833l-0,-1.084c-0,-0.554 -0.276,-0.833 -0.83,-0.833l-27.508,-0c-0.554,-0 -0.833,0.279 -0.833,0.833l-0,0.959c-0,0.637 0.279,0.958 0.833,0.958l12.217,-0l-0,41.196Zm22.329,-2.625c0.721,0.554 1.671,1.142 2.842,1.762c1.175,0.617 2.537,1.163 4.095,1.63c1.555,0.47 3.296,0.704 5.217,0.704c1.829,-0 3.587,-0.288 5.275,-0.863c1.683,-0.575 3.167,-1.375 4.446,-2.4c1.279,-1.025 2.304,-2.229 3.071,-3.612c0.766,-1.388 1.15,-2.892 1.15,-4.513c-0,-1.833 -0.329,-3.429 -0.992,-4.796c-0.663,-1.366 -1.621,-2.57 -2.879,-3.612c-1.259,-1.046 -2.771,-1.963 -4.542,-2.754c-1.771,-0.788 -3.741,-1.567 -5.916,-2.334c-1.621,-0.512 -3.084,-1.066 -4.38,-1.662c-1.304,-0.596 -2.425,-1.279 -3.362,-2.05c-0.938,-0.767 -1.65,-1.65 -2.142,-2.654c-0.487,-1 -0.733,-2.184 -0.733,-3.55c-0,-0.896 0.192,-1.842 0.575,-2.846c0.383,-1 1.012,-1.921 1.887,-2.75c0.871,-0.834 1.992,-1.525 3.359,-2.079c1.362,-0.554 3.025,-0.834 4.987,-0.834c1.238,0 2.408,0.15 3.517,0.45c1.112,0.296 2.091,0.63 2.946,0.992c0.854,0.363 1.546,0.7 2.079,1.021c0.529,0.321 0.816,0.504 0.862,0.546c0.555,0.341 1.025,0.233 1.409,-0.321c0.125,-0.296 0.296,-0.575 0.512,-0.834c0.213,-0.341 0.254,-0.629 0.125,-0.862c-0.125,-0.233 -0.254,-0.392 -0.383,-0.479c-0.938,-0.596 -1.984,-1.129 -3.134,-1.596c-0.979,-0.429 -2.141,-0.812 -3.487,-1.154c-1.342,-0.342 -2.804,-0.513 -4.379,-0.513c-2.521,0 -4.65,0.363 -6.396,1.088c-1.754,0.725 -3.171,1.654 -4.258,2.783c-1.084,1.129 -1.884,2.358 -2.396,3.679c-0.513,1.321 -0.771,2.579 -0.771,3.771c-0,1.838 0.3,3.404 0.9,4.704c0.596,1.3 1.425,2.43 2.492,3.392c1.066,0.958 2.354,1.792 3.87,2.492c1.513,0.704 3.209,1.375 5.084,2.016c1.921,0.638 3.646,1.3 5.183,1.984c1.538,0.683 2.838,1.45 3.904,2.3c1.063,0.854 1.884,1.816 2.459,2.879c0.579,1.071 0.866,2.304 0.866,3.712c0,1.15 -0.287,2.25 -0.866,3.296c-0.575,1.042 -1.355,1.958 -2.334,2.746c-0.979,0.792 -2.12,1.408 -3.421,1.858c-1.304,0.446 -2.675,0.671 -4.124,0.671c-1.625,0 -3.117,-0.233 -4.48,-0.704c-1.366,-0.467 -2.57,-0.992 -3.612,-1.567c-1.05,-0.575 -1.892,-1.129 -2.529,-1.662c-0.638,-0.533 -1.046,-0.863 -1.213,-0.992c-0.429,-0.383 -0.896,-0.296 -1.408,0.259l-0.575,0.766c-0.259,0.342 -0.346,0.604 -0.259,0.796c0.084,0.192 0.234,0.375 0.45,0.546c0.213,0.212 0.68,0.596 1.409,1.15Zm34.442,-9.879c1.216,2.791 2.87,5.22 4.958,7.291c2.092,2.067 4.546,3.7 7.358,4.892c2.817,1.196 5.821,1.792 9.021,1.792c2.854,-0 5.629,-0.5 8.313,-1.504c2.687,-1.001 5.12,-2.567 7.291,-4.7c0.388,-0.384 0.388,-0.746 0,-1.088l-1.087,-1.088c-0.296,-0.212 -0.638,-0.17 -1.021,0.13c-1.917,1.616 -3.958,2.916 -6.109,3.9c-2.154,0.983 -4.62,1.47 -7.387,1.47c-2.817,0 -5.438,-0.533 -7.871,-1.6c-2.429,-1.066 -4.541,-2.504 -6.333,-4.316c-1.792,-1.813 -3.196,-3.934 -4.221,-6.367c-1.021,-2.429 -1.533,-5.029 -1.533,-7.804c-0,-2.771 0.512,-5.383 1.533,-7.833c1.025,-2.454 2.429,-4.596 4.221,-6.43c1.792,-1.833 3.904,-3.283 6.333,-4.349c2.433,-1.067 5.054,-1.6 7.871,-1.6c2.642,-0 5.096,0.47 7.354,1.408c2.258,0.937 4.309,2.217 6.142,3.837c0.383,0.384 0.746,0.405 1.087,0.067l1.021,-1.092c0.171,-0.166 0.246,-0.358 0.225,-0.575c-0.021,-0.212 -0.116,-0.404 -0.287,-0.575c-2.088,-1.921 -4.379,-3.391 -6.875,-4.412c-2.496,-1.025 -5.388,-1.538 -8.667,-1.538c-3.2,0 -6.204,0.609 -9.021,1.825c-2.812,1.213 -5.266,2.855 -7.358,4.925c-2.088,2.067 -3.742,4.509 -4.958,7.325c-1.213,2.813 -1.821,5.821 -1.821,9.017c-0,3.2 0.608,6.196 1.821,8.992Zm47.308,12.504c-0,0.554 0.275,0.829 0.829,0.829l1.342,0c0.554,0 0.833,-0.275 0.833,-0.829l-0,-20.792l28.721,0l-0,20.792c-0,0.554 0.279,0.829 0.829,0.829l1.346,0c0.554,0 0.833,-0.275 0.833,-0.829l0,-43.113c0,-0.554 -0.279,-0.833 -0.833,-0.833l-1.346,-0c-0.55,-0 -0.829,0.279 -0.829,0.833l-0,19.638l-28.721,-0l-0,-19.638c-0,-0.554 -0.279,-0.833 -0.833,-0.833l-1.342,-0c-0.554,-0 -0.829,0.279 -0.829,0.833l-0,43.113Zm48.292,-0c-0,0.554 0.279,0.829 0.833,0.829l25.65,0c0.554,0 0.833,-0.275 0.833,-0.829l0,-1.025c0,-0.554 -0.279,-0.833 -0.833,-0.833l-23.413,-0l0,-18.934l20.28,0c0.554,0 0.833,-0.275 0.833,-0.833l-0,-1.084c-0,-0.554 -0.279,-0.833 -0.833,-0.833l-20.28,0l0,-17.654l23.413,-0c0.554,-0 0.833,-0.279 0.833,-0.833l0,-1.084c0,-0.554 -0.279,-0.833 -0.833,-0.833l-25.65,-0c-0.554,-0 -0.833,0.279 -0.833,0.833l-0,43.113Zm37.166,-2.625c0.725,0.554 1.675,1.142 2.846,1.762c1.171,0.617 2.537,1.163 4.096,1.63c1.554,0.47 3.291,0.704 5.212,0.704c1.834,-0 3.592,-0.288 5.275,-0.863c1.688,-0.575 3.167,-1.375 4.446,-2.4c1.279,-1.025 2.304,-2.229 3.071,-3.612c0.771,-1.388 1.154,-2.892 1.154,-4.513c0,-1.833 -0.333,-3.429 -0.991,-4.796c-0.663,-1.366 -1.625,-2.57 -2.88,-3.612c-1.258,-1.046 -2.771,-1.963 -4.541,-2.754c-1.771,-0.788 -3.742,-1.567 -5.917,-2.334c-1.625,-0.512 -3.083,-1.066 -4.383,-1.662c-1.3,-0.596 -2.421,-1.279 -3.359,-2.05c-0.937,-0.767 -1.654,-1.65 -2.141,-2.654c-0.492,-1 -0.738,-2.184 -0.738,-3.55c0,-0.896 0.192,-1.842 0.579,-2.846c0.384,-1 1.009,-1.921 1.884,-2.75c0.875,-0.834 1.991,-1.525 3.362,-2.079c1.363,-0.554 3.025,-0.834 4.988,-0.834c1.237,0 2.408,0.15 3.516,0.45c1.109,0.296 2.088,0.63 2.942,0.992c0.854,0.363 1.546,0.7 2.079,1.021c0.534,0.321 0.821,0.504 0.863,0.546c0.554,0.341 1.025,0.233 1.408,-0.321c0.129,-0.296 0.3,-0.575 0.512,-0.834c0.213,-0.341 0.255,-0.629 0.13,-0.862c-0.13,-0.233 -0.259,-0.392 -0.384,-0.479c-0.941,-0.596 -1.983,-1.129 -3.133,-1.596c-0.983,-0.429 -2.146,-0.812 -3.487,-1.154c-1.346,-0.342 -2.805,-0.513 -4.384,-0.513c-2.517,0 -4.646,0.363 -6.396,1.088c-1.75,0.725 -3.166,1.654 -4.254,2.783c-1.087,1.129 -1.887,2.358 -2.4,3.679c-0.512,1.321 -0.767,2.579 -0.767,3.771c0,1.838 0.296,3.404 0.896,4.704c0.596,1.3 1.43,2.43 2.496,3.392c1.067,0.958 2.354,1.792 3.867,2.492c1.516,0.704 3.212,1.375 5.087,2.016c1.921,0.638 3.646,1.3 5.18,1.984c1.537,0.683 2.837,1.45 3.904,2.3c1.066,0.854 1.887,1.816 2.462,2.879c0.575,1.071 0.863,2.304 0.863,3.712c-0,1.15 -0.288,2.25 -0.863,3.296c-0.575,1.042 -1.354,1.958 -2.333,2.746c-0.984,0.792 -2.125,1.408 -3.425,1.858c-1.3,0.446 -2.675,0.671 -4.125,0.671c-1.621,0 -3.113,-0.233 -4.475,-0.704c-1.367,-0.467 -2.571,-0.992 -3.617,-1.567c-1.046,-0.575 -1.887,-1.129 -2.525,-1.662c-0.642,-0.533 -1.046,-0.863 -1.217,-0.992c-0.424,-0.383 -0.895,-0.296 -1.408,0.259l-0.575,0.766c-0.258,0.342 -0.342,0.604 -0.258,0.796c0.087,0.192 0.237,0.375 0.45,0.546c0.212,0.212 0.683,0.596 1.408,1.15Z" style="fill:#636466;fill-rule:nonzero;"/></g></svg>