<?xml version="1.0" encoding="UTF-8"?>
<svg id="Layer_2" data-name="Layer 2" xmlns="http://www.w3.org/2000/svg" viewBox="0 0 186.01 22.87">
  <defs>
    <style>
      .cls-1 {
        fill: #f04e4f;
      }

      .cls-2 {
        fill: #4d4d4f;
      }
    </style>
  </defs>
  <g id="Layer_1-2" data-name="Layer 1">
    <path class="cls-2" d="M138.49,19.32c.02.23.03.56.03.74v2.71h.68v-1.84c0-.69.39-1.14.93-1.14.63,0,.79.5.79,1.06v1.92h.68v-2.15c0-.77-.4-1.41-1.29-1.41-.5,0-.96.29-1.12.66h-.02c0-.14-.01-.39-.03-.57h-.65ZM137.2,21.02c0-1.1-.64-1.79-1.66-1.79s-1.79.75-1.79,1.83.77,1.82,1.83,1.82c.61,0,1.12-.23,1.49-.71l-.48-.39c-.2.29-.54.53-1.01.53-.61,0-1.1-.46-1.12-1.05h2.74c0-.08,0-.16,0-.23M134.45,20.74c.04-.54.5-.98,1.09-.98.63,0,.96.43.97.98h-2.06ZM132.65,21.02c0-1.1-.64-1.79-1.66-1.79s-1.79.75-1.79,1.83.77,1.82,1.82,1.82c.61,0,1.12-.23,1.49-.71l-.48-.39c-.2.29-.54.53-1.01.53-.61,0-1.1-.46-1.12-1.05h2.74c0-.08,0-.16,0-.23M129.9,20.74c.04-.54.5-.98,1.09-.98.63,0,.96.43.97.98h-2.06ZM128.16,19.79c-.25-.37-.77-.57-1.26-.57-.66,0-1.31.31-1.31,1.06,0,.65.55.85,1.01.96.59.14.91.26.91.58,0,.38-.34.5-.69.5-.39,0-.74-.21-.92-.48l-.49.42c.33.42.87.62,1.39.62.7,0,1.38-.3,1.38-1.12,0-.61-.5-.88-1.16-1.02-.53-.12-.79-.23-.79-.52,0-.33.33-.45.64-.45.35,0,.65.18.8.43l.47-.4ZM124.29,22.77c-.02-.23-.03-.56-.03-.74v-2.71h-.69v1.84c0,.69-.38,1.14-.93,1.14-.64,0-.79-.5-.79-1.07v-1.91h-.68v2.15c0,.77.4,1.41,1.29,1.41.5,0,.96-.3,1.13-.66h.01c0,.15.01.39.03.57h.65ZM115.41,17.61h-1.12v5.16h.7v-4.31h.01l1.71,4.31h.46l1.72-4.31h.01v4.31h.72v-5.16h-1.12l-1.53,3.96h-.01l-1.55-3.96ZM109.05,20.06v2.72h.69v-1.82c0-.58.31-1.11.97-1.11.11,0,.23.01.31.04l.03-.63c-.08-.02-.18-.03-.27-.03-.47,0-.87.28-1.06.68h-.02c0-.14-.01-.41-.03-.58h-.65c.02.23.03.56.03.74h0ZM107.73,21.02c0-1.1-.64-1.79-1.66-1.79s-1.79.75-1.79,1.83.77,1.82,1.82,1.82c.61,0,1.12-.23,1.49-.71l-.48-.39c-.2.29-.54.53-1.01.53-.61,0-1.1-.46-1.12-1.05h2.75c0-.08,0-.16,0-.23M104.98,20.74c.04-.54.5-.98,1.09-.98.64,0,.96.43.97.98h-2.06ZM100.58,19.84v-2.58h-.69v5.52h.69v-1.83c0-.69.39-1.14.93-1.14.64,0,.78.5.78,1.06v1.91h.68v-2.15c0-.77-.4-1.41-1.29-1.41-.5,0-.93.28-1.09.62h-.01ZM98.82,19.79c-.28-.37-.81-.57-1.3-.57-1.06,0-1.85.74-1.85,1.82s.79,1.83,1.86,1.83c.56,0,1-.2,1.29-.54l-.46-.42c-.18.23-.48.38-.83.38-.72,0-1.14-.59-1.14-1.25s.42-1.25,1.13-1.25c.33,0,.65.17.8.39l.5-.4ZM94.64,19.79c-.25-.37-.76-.57-1.25-.57-.66,0-1.31.31-1.31,1.06,0,.65.55.85,1.01.96.59.14.91.26.91.58,0,.38-.34.5-.69.5-.39,0-.74-.21-.92-.48l-.49.42c.33.42.87.62,1.39.62.7,0,1.38-.3,1.38-1.12,0-.61-.5-.88-1.16-1.02-.53-.12-.79-.23-.79-.52,0-.33.33-.45.64-.45.35,0,.65.18.8.43l.47-.4ZM90.85,18.06c0-.26-.21-.44-.46-.44s-.45.2-.45.44.2.44.45.44.46-.19.46-.44M90.74,19.32h-.68v3.46h.68v-3.46ZM86.12,19.84v-2.58h-.68v5.52h.68v-1.83c0-.69.4-1.14.94-1.14.63,0,.78.5.78,1.06v1.91h.68v-2.15c0-.77-.4-1.41-1.29-1.41-.5,0-.93.28-1.1.62h-.01ZM84.36,19.79c-.28-.37-.81-.57-1.3-.57-1.06,0-1.85.74-1.85,1.82s.79,1.83,1.86,1.83c.56,0,1-.2,1.29-.54l-.46-.42c-.18.23-.48.38-.83.38-.72,0-1.14-.59-1.14-1.25s.42-1.25,1.13-1.25c.33,0,.65.17.8.39l.5-.4ZM80,18.06c0-.26-.21-.44-.46-.44s-.45.2-.45.44.21.44.45.44.46-.19.46-.44M79.88,19.32h-.68v3.46h.68v-3.46ZM77.87,21.02c0-1.1-.64-1.79-1.66-1.79s-1.79.75-1.79,1.83.77,1.82,1.82,1.82c.61,0,1.12-.23,1.49-.71l-.48-.39c-.2.29-.54.53-1.01.53-.61,0-1.1-.46-1.12-1.05h2.75c0-.08,0-.16,0-.23M75.11,20.74c.04-.54.5-.98,1.09-.98.64,0,.96.43.97.98h-2.06ZM71.76,20.06v2.72h.69v-1.82c0-.58.31-1.11.97-1.11.11,0,.23.01.31.04l.03-.63c-.08-.02-.18-.03-.27-.03-.47,0-.87.28-1.06.68h-.02c0-.14-.01-.41-.03-.58h-.65c.02.23.03.56.03.74h0ZM68.76,20.06v2.72h.68v-1.82c0-.58.31-1.11.97-1.11.11,0,.23.01.31.04l.03-.63c-.08-.02-.18-.03-.27-.03-.47,0-.87.28-1.06.68h-.02c0-.14-.01-.41-.03-.58h-.65c.02.23.03.56.03.74h0ZM67.44,21.02c0-1.1-.64-1.79-1.66-1.79s-1.79.75-1.79,1.83.77,1.82,1.82,1.82c.61,0,1.12-.23,1.49-.71l-.48-.39c-.2.29-.54.53-1.01.53-.61,0-1.1-.46-1.12-1.05h2.75c0-.08,0-.16,0-.23M64.68,20.74c.04-.54.5-.98,1.09-.98.63,0,.96.43.97.98h-2.06ZM63.14,19.32h-.92v-.99h-.68v.99h-.66v.56h.66v1.88c0,.72.36,1.08,1.01,1.08.21,0,.42-.04.58-.09l-.02-.56c-.12.06-.28.09-.4.09-.34,0-.49-.17-.49-.58v-1.8h.92v-.56ZM60.18,19.79c-.25-.37-.77-.57-1.26-.57-.66,0-1.31.31-1.31,1.06,0,.65.55.85,1.01.96.59.14.91.26.91.58,0,.38-.34.5-.69.5-.39,0-.74-.21-.92-.48l-.49.42c.33.42.87.62,1.39.62.7,0,1.38-.3,1.38-1.12,0-.61-.5-.88-1.16-1.02-.53-.12-.79-.23-.79-.52,0-.33.33-.45.64-.45.35,0,.65.18.8.43l.47-.4ZM54.92,18.06c0,.23.19.44.45.44s.45-.2.45-.44-.2-.44-.45-.44-.45.21-.45.44M53.5,18.06c0,.23.19.44.45.44s.45-.2.45-.44-.2-.44-.45-.44-.45.21-.45.44M55.81,21.04c0,.66-.41,1.26-1.15,1.26s-1.15-.6-1.15-1.26.42-1.25,1.15-1.25,1.15.59,1.15,1.25M56.52,21.04c0-1.07-.81-1.82-1.87-1.82s-1.86.75-1.86,1.82.8,1.83,1.86,1.83,1.87-.77,1.87-1.83M47.32,17.26h-.69v5.52h.69v-1.8h.02l1.56,1.8h.95l-1.76-1.89,1.62-1.57h-.92l-1.45,1.5h-.02v-3.56ZM43.61,20.06v2.72h.68v-1.82c0-.58.31-1.11.97-1.11.11,0,.23.01.31.04l.03-.63c-.08-.02-.18-.03-.27-.03-.47,0-.87.28-1.06.68h-.02c0-.14-.01-.41-.03-.58h-.65c.02.23.03.56.03.74h0ZM42.29,21.02c0-1.1-.64-1.79-1.66-1.79s-1.79.75-1.79,1.83.77,1.82,1.83,1.82c.61,0,1.12-.23,1.49-.71l-.48-.39c-.2.29-.54.53-1.01.53-.61,0-1.1-.46-1.12-1.05h2.74c0-.08,0-.16,0-.23M39.53,20.74c.04-.54.5-.98,1.09-.98.63,0,.96.43.97.98h-2.06ZM32.56,19.32l1.15,3.46h.72l.85-2.6h.01l.85,2.6h.72l1.15-3.46h-.72l-.78,2.64h-.01l-.84-2.64h-.72l-.83,2.64h-.01l-.78-2.64h-.74ZM31.78,19.32h-2.72v.56h1.86l-1.96,2.34v.56h2.9v-.58h-2.05l1.97-2.32v-.56ZM28.24,19.32h-.92v-.99h-.68v.99h-.67v.56h.67v1.88c0,.72.36,1.08,1.01,1.08.21,0,.42-.04.58-.09l-.02-.56c-.12.06-.28.09-.4.09-.34,0-.49-.17-.49-.58v-1.8h.92v-.56ZM25.23,21.02c0-1.1-.64-1.79-1.66-1.79s-1.79.75-1.79,1.83.77,1.82,1.82,1.82c.61,0,1.12-.23,1.49-.71l-.48-.39c-.2.29-.54.53-1.01.53-.61,0-1.1-.46-1.12-1.05h2.74c0-.08,0-.16,0-.23M22.48,20.74c.04-.54.5-.98,1.09-.98.64,0,.96.43.97.98h-2.06ZM16.98,17.61h-.94v5.16h.72v-4.21h.01l2.73,4.21h.91v-5.16h-.72v4.12h-.01l-2.7-4.12ZM12.55,19.79c-.25-.37-.77-.57-1.26-.57-.66,0-1.31.31-1.31,1.06,0,.65.55.85,1.01.96.59.14.91.26.91.58,0,.38-.34.5-.69.5-.39,0-.74-.21-.92-.48l-.49.42c.33.42.87.62,1.39.62.7,0,1.38-.3,1.38-1.12,0-.61-.5-.88-1.16-1.02-.53-.12-.79-.23-.79-.52,0-.33.33-.45.64-.45.35,0,.65.18.8.43l.47-.4ZM8.04,21.12v.18c0,.58-.36,1.02-1,1.02-.34,0-.71-.13-.71-.54,0-.59.86-.66,1.54-.66h.17ZM8.04,20.63c-1.17,0-2.41.12-2.41,1.17,0,.8.71,1.07,1.26,1.07.52,0,.91-.21,1.16-.58h.02c0,.16.02.34.06.5h.62c-.04-.17-.05-.45-.05-.69v-1.51c0-.77-.45-1.36-1.44-1.36-.56,0-1.08.2-1.42.52l.37.44c.23-.23.6-.4.99-.4.51,0,.85.25.85.76v.1ZM.72,18.24h.9c1.25,0,2.16.68,2.16,1.95s-.91,1.95-2.16,1.95h-.9v-3.9ZM0,22.77h1.77c1.32,0,2.79-.82,2.79-2.58s-1.47-2.58-2.79-2.58H0v5.16Z"/>
    <path class="cls-2" d="M92.41,3.05h1.72c2.56,0,3.79,1.73,3.79,3.48s-1.24,3.48-3.79,3.48h-1.72V3.05ZM91.55,10.77h2.82c2.12,0,4.46-1.41,4.46-4.25s-2.34-4.25-4.46-4.25h-2.82v8.49ZM82.66,2.28h-1.08v8.49h.86V3.47h.02l4.94,7.31h1.08V2.28h-.86v7.24h-.02l-4.94-7.24ZM75.49,10.99c2.54,0,3.18-1.97,3.18-3.38V2.28h-.86v5.23c0,1.37-.59,2.71-2.32,2.71s-2.32-1.34-2.32-2.71V2.28h-.86v5.33c0,1.42.64,3.38,3.18,3.38M65.05,6.71h1.76c1.38,0,2.18.55,2.18,1.67,0,1.19-1.09,1.66-2.34,1.66h-1.61v-3.33ZM65.05,3.02h1.5c1.12,0,2.04.41,2.04,1.49s-.97,1.49-1.8,1.49h-1.74v-2.98ZM64.19,10.77h2.52c1.96,0,3.17-.93,3.17-2.35,0-1.24-.82-2-1.92-2.12v-.02c.9-.2,1.5-.94,1.5-1.82,0-1.7-1.44-2.17-2.74-2.17h-2.53v8.49ZM61.22,3.09c-.41-.55-1.26-1.03-2.4-1.03-1.25,0-2.71.69-2.71,2.34,0,1.54,1.15,2.03,2.28,2.38,1.08.34,2.08.64,2.08,1.82,0,1.09-1.01,1.64-1.88,1.64s-1.57-.47-1.94-1.07l-.74.55c.61.84,1.64,1.26,2.67,1.26,1.35,0,2.77-.74,2.77-2.45s-1.32-2.09-2.52-2.49c-.95-.31-1.85-.59-1.85-1.67s.97-1.6,1.81-1.6,1.39.34,1.75.85l.68-.55ZM46.29,2.28h-1.32v8.49h.86V3.39h.02l3.07,7.38h.46l3.07-7.38h.02v7.38h.86V2.28h-1.32l-2.84,7.03h-.01l-2.88-7.03ZM38.95,10.99c2.54,0,3.18-1.97,3.18-3.38V2.28h-.86v5.23c0,1.37-.59,2.71-2.32,2.71s-2.32-1.34-2.32-2.71V2.28h-.86v5.33c0,1.42.63,3.38,3.18,3.38M28.85,6.73h4.12v-.75h-4.12v-2.93h4.4v-.77h-5.27v8.49h5.41v-.77h-4.55v-3.28ZM25.21,3.09c-.41-.55-1.26-1.03-2.4-1.03-1.25,0-2.71.69-2.71,2.34,0,1.54,1.15,2.03,2.28,2.38,1.08.34,2.08.64,2.08,1.82,0,1.09-1.01,1.64-1.88,1.64s-1.57-.47-1.94-1.07l-.74.55c.61.84,1.64,1.26,2.68,1.26,1.34,0,2.77-.74,2.77-2.45s-1.32-2.09-2.52-2.49c-.95-.31-1.85-.59-1.85-1.67s.97-1.6,1.81-1.6,1.39.34,1.75.85l.68-.55ZM14.48,10.99c2.54,0,3.18-1.97,3.18-3.38V2.28h-.86v5.23c0,1.37-.59,2.71-2.32,2.71s-2.32-1.34-2.32-2.71V2.28h-.86v5.33c0,1.42.64,3.38,3.18,3.38M1.39,2.28H.07v8.49h.86V3.39h.02l3.07,7.38h.46l3.07-7.38h.02v7.38h.86V2.28h-1.32l-2.84,7.03h-.01L1.39,2.28Z"/>
    <path class="cls-2" d="M179.65,10.77h.86v-4.02h4.63v4.02h.86V2.28h-.86v3.68h-4.63v-3.68h-.86v8.49ZM176.53,8.98c-.59.88-1.52,1.26-2.5,1.26-2.18,0-3.53-1.73-3.53-3.71s1.33-3.71,3.53-3.71c1.08,0,1.93.56,2.29,1.12l.72-.53c-.59-.83-1.78-1.34-3.02-1.34-2.53,0-4.43,1.88-4.43,4.46s1.86,4.46,4.43,4.46c1.52,0,2.62-.73,3.18-1.58l-.67-.43ZM166.95,2.28h-.86v8.49h.86V2.28ZM158.83,6.73h4.12v-.75h-4.12v-2.93h4.4v-.77h-5.27v8.49h5.41v-.77h-4.55v-3.28ZM150.56,3.02h1.54c1.29,0,2.14.41,2.14,1.53,0,1.01-.79,1.51-2.17,1.51h-1.5v-3.04ZM150.56,6.8h1.44l2.35,3.97h1.05l-2.48-4.04c1.24-.13,2.17-.92,2.17-2.18,0-1.66-1.22-2.27-2.9-2.27h-2.5v8.49h.86v-3.97ZM142.17,3.02h1.54c1.29,0,2.14.41,2.14,1.53,0,1.01-.79,1.51-2.17,1.51h-1.5v-3.04ZM142.17,6.8h1.44l2.35,3.97h1.05l-2.48-4.04c1.24-.13,2.17-.92,2.17-2.18,0-1.66-1.22-2.27-2.9-2.27h-2.5v8.49h.86v-3.97ZM134.11,6.73h4.12v-.75h-4.12v-2.93h4.4v-.77h-5.27v8.49h5.41v-.77h-4.55v-3.28ZM128.23,3.05h2.84v-.77h-6.55v.77h2.84v7.73h.86V3.05ZM122.88,3.09c-.41-.55-1.26-1.03-2.4-1.03-1.25,0-2.71.69-2.71,2.34,0,1.54,1.15,2.03,2.28,2.38,1.08.34,2.08.64,2.08,1.82,0,1.09-1.01,1.64-1.88,1.64s-1.57-.47-1.94-1.07l-.74.55c.61.84,1.64,1.26,2.68,1.26,1.34,0,2.77-.74,2.77-2.45s-1.32-2.09-2.52-2.48c-.95-.31-1.85-.59-1.85-1.67s.97-1.6,1.81-1.6,1.39.34,1.75.85l.68-.55ZM111.85.61c0,.31.25.61.61.61s.61-.3.61-.61-.25-.61-.61-.61-.61.3-.61.61M109.55.61c0,.31.25.61.61.61s.61-.3.61-.61-.25-.61-.61-.61-.61.3-.61.61M114.83,6.53c0,1.98-1.33,3.7-3.52,3.7s-3.52-1.72-3.52-3.7,1.33-3.71,3.52-3.71,3.52,1.73,3.52,3.71M115.74,6.53c0-2.58-1.89-4.46-4.43-4.46s-4.43,1.88-4.43,4.46,1.89,4.46,4.43,4.46,4.43-1.88,4.43-4.46"/>
    <path class="cls-1" d="M102.62,3.32c-.11,0-.2.09-.2.2v2.01h.85v-2.01c0-.11-.09-.2-.2-.2h-.45Z"/>
    <path class="cls-1" d="M102.42,7.46v2.01c0,.11.09.2.2.2h.45c.11,0,.2-.09.2-.2v-2.01h-.85Z"/>
  </g>
</svg>